G04 #@! TF.FileFunction,Legend,Top*
%FSLAX46Y46*%
G04 Gerber Fmt 4.6, Leading zero omitted, Abs format (unit mm)*
G04 Created by KiCad (PCBNEW (2015-02-22 BZR 5447)-product) date 2015 March 16, Monday 22:42:37*
%MOMM*%
G01*
G04 APERTURE LIST*
%ADD10C,0.100000*%
%ADD11C,0.127000*%
%ADD12C,0.150000*%
G04 APERTURE END LIST*
D10*
D11*
X170297929Y-118327714D02*
X170297929Y-117565714D01*
X170297929Y-117928571D02*
X170733357Y-117928571D01*
X170733357Y-118327714D02*
X170733357Y-117565714D01*
X171096215Y-118327714D02*
X171096215Y-117819714D01*
X171096215Y-117565714D02*
X171059929Y-117602000D01*
X171096215Y-117638286D01*
X171132500Y-117602000D01*
X171096215Y-117565714D01*
X171096215Y-117638286D01*
X171785643Y-117819714D02*
X171785643Y-118436571D01*
X171749357Y-118509143D01*
X171713072Y-118545429D01*
X171640500Y-118581714D01*
X171531643Y-118581714D01*
X171459072Y-118545429D01*
X171785643Y-118291429D02*
X171713072Y-118327714D01*
X171567929Y-118327714D01*
X171495357Y-118291429D01*
X171459072Y-118255143D01*
X171422786Y-118182571D01*
X171422786Y-117964857D01*
X171459072Y-117892286D01*
X171495357Y-117856000D01*
X171567929Y-117819714D01*
X171713072Y-117819714D01*
X171785643Y-117856000D01*
X172148501Y-118327714D02*
X172148501Y-117565714D01*
X172475072Y-118327714D02*
X172475072Y-117928571D01*
X172438786Y-117856000D01*
X172366215Y-117819714D01*
X172257358Y-117819714D01*
X172184786Y-117856000D01*
X172148501Y-117892286D01*
X149288500Y-118391214D02*
X148925643Y-118391214D01*
X148925643Y-117629214D01*
X149651357Y-118391214D02*
X149578785Y-118354929D01*
X149542500Y-118318643D01*
X149506214Y-118246071D01*
X149506214Y-118028357D01*
X149542500Y-117955786D01*
X149578785Y-117919500D01*
X149651357Y-117883214D01*
X149760214Y-117883214D01*
X149832785Y-117919500D01*
X149869071Y-117955786D01*
X149905357Y-118028357D01*
X149905357Y-118246071D01*
X149869071Y-118318643D01*
X149832785Y-118354929D01*
X149760214Y-118391214D01*
X149651357Y-118391214D01*
X150159357Y-117883214D02*
X150304500Y-118391214D01*
X150449643Y-118028357D01*
X150594786Y-118391214D01*
X150739929Y-117883214D01*
D12*
X151130000Y-109220000D02*
X151130000Y-116840000D01*
X148590000Y-109220000D02*
X148590000Y-116840000D01*
X148310000Y-106400000D02*
X148310000Y-107950000D01*
X151130000Y-116840000D02*
X148590000Y-116840000D01*
X148590000Y-109220000D02*
X151130000Y-109220000D01*
X151410000Y-107950000D02*
X151410000Y-106400000D01*
X151410000Y-106400000D02*
X148310000Y-106400000D01*
X172720000Y-109220000D02*
X172720000Y-116840000D01*
X170180000Y-109220000D02*
X170180000Y-116840000D01*
X169900000Y-106400000D02*
X169900000Y-107950000D01*
X172720000Y-116840000D02*
X170180000Y-116840000D01*
X170180000Y-109220000D02*
X172720000Y-109220000D01*
X173000000Y-107950000D02*
X173000000Y-106400000D01*
X173000000Y-106400000D02*
X169900000Y-106400000D01*
X159690000Y-107080000D02*
X162890000Y-107080000D01*
X162890000Y-107080000D02*
X162890000Y-108280000D01*
X162890000Y-108280000D02*
X159690000Y-108280000D01*
X159690000Y-108280000D02*
X159690000Y-107080000D01*
X162890000Y-116440000D02*
X159690000Y-116440000D01*
X159690000Y-116440000D02*
X159690000Y-115240000D01*
X159690000Y-115240000D02*
X162890000Y-115240000D01*
X162890000Y-115240000D02*
X162890000Y-116440000D01*
X156175000Y-108190000D02*
X154975000Y-108190000D01*
X154975000Y-106440000D02*
X156175000Y-106440000D01*
X156175000Y-117080000D02*
X154975000Y-117080000D01*
X154975000Y-115330000D02*
X156175000Y-115330000D01*
X165770000Y-115330000D02*
X166970000Y-115330000D01*
X166970000Y-117080000D02*
X165770000Y-117080000D01*
X165770000Y-106440000D02*
X166970000Y-106440000D01*
X166970000Y-108190000D02*
X165770000Y-108190000D01*
X148169524Y-105862381D02*
X148169524Y-104862381D01*
X148550477Y-104862381D01*
X148645715Y-104910000D01*
X148693334Y-104957619D01*
X148740953Y-105052857D01*
X148740953Y-105195714D01*
X148693334Y-105290952D01*
X148645715Y-105338571D01*
X148550477Y-105386190D01*
X148169524Y-105386190D01*
X149693334Y-105862381D02*
X149121905Y-105862381D01*
X149407619Y-105862381D02*
X149407619Y-104862381D01*
X149312381Y-105005238D01*
X149217143Y-105100476D01*
X149121905Y-105148095D01*
X150312381Y-104862381D02*
X150407620Y-104862381D01*
X150502858Y-104910000D01*
X150550477Y-104957619D01*
X150598096Y-105052857D01*
X150645715Y-105243333D01*
X150645715Y-105481429D01*
X150598096Y-105671905D01*
X150550477Y-105767143D01*
X150502858Y-105814762D01*
X150407620Y-105862381D01*
X150312381Y-105862381D01*
X150217143Y-105814762D01*
X150169524Y-105767143D01*
X150121905Y-105671905D01*
X150074286Y-105481429D01*
X150074286Y-105243333D01*
X150121905Y-105052857D01*
X150169524Y-104957619D01*
X150217143Y-104910000D01*
X150312381Y-104862381D01*
X151598096Y-105862381D02*
X151026667Y-105862381D01*
X151312381Y-105862381D02*
X151312381Y-104862381D01*
X151217143Y-105005238D01*
X151121905Y-105100476D01*
X151026667Y-105148095D01*
X169759524Y-105862381D02*
X169759524Y-104862381D01*
X170140477Y-104862381D01*
X170235715Y-104910000D01*
X170283334Y-104957619D01*
X170330953Y-105052857D01*
X170330953Y-105195714D01*
X170283334Y-105290952D01*
X170235715Y-105338571D01*
X170140477Y-105386190D01*
X169759524Y-105386190D01*
X171283334Y-105862381D02*
X170711905Y-105862381D01*
X170997619Y-105862381D02*
X170997619Y-104862381D01*
X170902381Y-105005238D01*
X170807143Y-105100476D01*
X170711905Y-105148095D01*
X171902381Y-104862381D02*
X171997620Y-104862381D01*
X172092858Y-104910000D01*
X172140477Y-104957619D01*
X172188096Y-105052857D01*
X172235715Y-105243333D01*
X172235715Y-105481429D01*
X172188096Y-105671905D01*
X172140477Y-105767143D01*
X172092858Y-105814762D01*
X171997620Y-105862381D01*
X171902381Y-105862381D01*
X171807143Y-105814762D01*
X171759524Y-105767143D01*
X171711905Y-105671905D01*
X171664286Y-105481429D01*
X171664286Y-105243333D01*
X171711905Y-105052857D01*
X171759524Y-104957619D01*
X171807143Y-104910000D01*
X171902381Y-104862381D01*
X172616667Y-104957619D02*
X172664286Y-104910000D01*
X172759524Y-104862381D01*
X172997620Y-104862381D01*
X173092858Y-104910000D01*
X173140477Y-104957619D01*
X173188096Y-105052857D01*
X173188096Y-105148095D01*
X173140477Y-105290952D01*
X172569048Y-105862381D01*
X173188096Y-105862381D01*
D10*
X160242381Y-111037619D02*
X160147143Y-110990000D01*
X160051905Y-110894762D01*
X159909048Y-110751905D01*
X159813809Y-110704286D01*
X159718571Y-110704286D01*
X159766190Y-110942381D02*
X159670952Y-110894762D01*
X159575714Y-110799524D01*
X159528095Y-110609048D01*
X159528095Y-110275714D01*
X159575714Y-110085238D01*
X159670952Y-109990000D01*
X159766190Y-109942381D01*
X159956667Y-109942381D01*
X160051905Y-109990000D01*
X160147143Y-110085238D01*
X160194762Y-110275714D01*
X160194762Y-110609048D01*
X160147143Y-110799524D01*
X160051905Y-110894762D01*
X159956667Y-110942381D01*
X159766190Y-110942381D01*
X161147143Y-110942381D02*
X160575714Y-110942381D01*
X160861428Y-110942381D02*
X160861428Y-109942381D01*
X160766190Y-110085238D01*
X160670952Y-110180476D01*
X160575714Y-110228095D01*
X161766190Y-109942381D02*
X161861429Y-109942381D01*
X161956667Y-109990000D01*
X162004286Y-110037619D01*
X162051905Y-110132857D01*
X162099524Y-110323333D01*
X162099524Y-110561429D01*
X162051905Y-110751905D01*
X162004286Y-110847143D01*
X161956667Y-110894762D01*
X161861429Y-110942381D01*
X161766190Y-110942381D01*
X161670952Y-110894762D01*
X161623333Y-110847143D01*
X161575714Y-110751905D01*
X161528095Y-110561429D01*
X161528095Y-110323333D01*
X161575714Y-110132857D01*
X161623333Y-110037619D01*
X161670952Y-109990000D01*
X161766190Y-109942381D01*
X163051905Y-110942381D02*
X162480476Y-110942381D01*
X162766190Y-110942381D02*
X162766190Y-109942381D01*
X162670952Y-110085238D01*
X162575714Y-110180476D01*
X162480476Y-110228095D01*
X160242381Y-114212619D02*
X160147143Y-114165000D01*
X160051905Y-114069762D01*
X159909048Y-113926905D01*
X159813809Y-113879286D01*
X159718571Y-113879286D01*
X159766190Y-114117381D02*
X159670952Y-114069762D01*
X159575714Y-113974524D01*
X159528095Y-113784048D01*
X159528095Y-113450714D01*
X159575714Y-113260238D01*
X159670952Y-113165000D01*
X159766190Y-113117381D01*
X159956667Y-113117381D01*
X160051905Y-113165000D01*
X160147143Y-113260238D01*
X160194762Y-113450714D01*
X160194762Y-113784048D01*
X160147143Y-113974524D01*
X160051905Y-114069762D01*
X159956667Y-114117381D01*
X159766190Y-114117381D01*
X161147143Y-114117381D02*
X160575714Y-114117381D01*
X160861428Y-114117381D02*
X160861428Y-113117381D01*
X160766190Y-113260238D01*
X160670952Y-113355476D01*
X160575714Y-113403095D01*
X161766190Y-113117381D02*
X161861429Y-113117381D01*
X161956667Y-113165000D01*
X162004286Y-113212619D01*
X162051905Y-113307857D01*
X162099524Y-113498333D01*
X162099524Y-113736429D01*
X162051905Y-113926905D01*
X162004286Y-114022143D01*
X161956667Y-114069762D01*
X161861429Y-114117381D01*
X161766190Y-114117381D01*
X161670952Y-114069762D01*
X161623333Y-114022143D01*
X161575714Y-113926905D01*
X161528095Y-113736429D01*
X161528095Y-113498333D01*
X161575714Y-113307857D01*
X161623333Y-113212619D01*
X161670952Y-113165000D01*
X161766190Y-113117381D01*
X162480476Y-113212619D02*
X162528095Y-113165000D01*
X162623333Y-113117381D01*
X162861429Y-113117381D01*
X162956667Y-113165000D01*
X163004286Y-113212619D01*
X163051905Y-113307857D01*
X163051905Y-113403095D01*
X163004286Y-113545952D01*
X162432857Y-114117381D01*
X163051905Y-114117381D01*
D12*
X154455953Y-105667381D02*
X154122619Y-105191190D01*
X153884524Y-105667381D02*
X153884524Y-104667381D01*
X154265477Y-104667381D01*
X154360715Y-104715000D01*
X154408334Y-104762619D01*
X154455953Y-104857857D01*
X154455953Y-105000714D01*
X154408334Y-105095952D01*
X154360715Y-105143571D01*
X154265477Y-105191190D01*
X153884524Y-105191190D01*
X155408334Y-105667381D02*
X154836905Y-105667381D01*
X155122619Y-105667381D02*
X155122619Y-104667381D01*
X155027381Y-104810238D01*
X154932143Y-104905476D01*
X154836905Y-104953095D01*
X156027381Y-104667381D02*
X156122620Y-104667381D01*
X156217858Y-104715000D01*
X156265477Y-104762619D01*
X156313096Y-104857857D01*
X156360715Y-105048333D01*
X156360715Y-105286429D01*
X156313096Y-105476905D01*
X156265477Y-105572143D01*
X156217858Y-105619762D01*
X156122620Y-105667381D01*
X156027381Y-105667381D01*
X155932143Y-105619762D01*
X155884524Y-105572143D01*
X155836905Y-105476905D01*
X155789286Y-105286429D01*
X155789286Y-105048333D01*
X155836905Y-104857857D01*
X155884524Y-104762619D01*
X155932143Y-104715000D01*
X156027381Y-104667381D01*
X157313096Y-105667381D02*
X156741667Y-105667381D01*
X157027381Y-105667381D02*
X157027381Y-104667381D01*
X156932143Y-104810238D01*
X156836905Y-104905476D01*
X156741667Y-104953095D01*
X154455953Y-114557381D02*
X154122619Y-114081190D01*
X153884524Y-114557381D02*
X153884524Y-113557381D01*
X154265477Y-113557381D01*
X154360715Y-113605000D01*
X154408334Y-113652619D01*
X154455953Y-113747857D01*
X154455953Y-113890714D01*
X154408334Y-113985952D01*
X154360715Y-114033571D01*
X154265477Y-114081190D01*
X153884524Y-114081190D01*
X155408334Y-114557381D02*
X154836905Y-114557381D01*
X155122619Y-114557381D02*
X155122619Y-113557381D01*
X155027381Y-113700238D01*
X154932143Y-113795476D01*
X154836905Y-113843095D01*
X156027381Y-113557381D02*
X156122620Y-113557381D01*
X156217858Y-113605000D01*
X156265477Y-113652619D01*
X156313096Y-113747857D01*
X156360715Y-113938333D01*
X156360715Y-114176429D01*
X156313096Y-114366905D01*
X156265477Y-114462143D01*
X156217858Y-114509762D01*
X156122620Y-114557381D01*
X156027381Y-114557381D01*
X155932143Y-114509762D01*
X155884524Y-114462143D01*
X155836905Y-114366905D01*
X155789286Y-114176429D01*
X155789286Y-113938333D01*
X155836905Y-113747857D01*
X155884524Y-113652619D01*
X155932143Y-113605000D01*
X156027381Y-113557381D01*
X156741667Y-113652619D02*
X156789286Y-113605000D01*
X156884524Y-113557381D01*
X157122620Y-113557381D01*
X157217858Y-113605000D01*
X157265477Y-113652619D01*
X157313096Y-113747857D01*
X157313096Y-113843095D01*
X157265477Y-113985952D01*
X156694048Y-114557381D01*
X157313096Y-114557381D01*
X165250953Y-114752381D02*
X164917619Y-114276190D01*
X164679524Y-114752381D02*
X164679524Y-113752381D01*
X165060477Y-113752381D01*
X165155715Y-113800000D01*
X165203334Y-113847619D01*
X165250953Y-113942857D01*
X165250953Y-114085714D01*
X165203334Y-114180952D01*
X165155715Y-114228571D01*
X165060477Y-114276190D01*
X164679524Y-114276190D01*
X166203334Y-114752381D02*
X165631905Y-114752381D01*
X165917619Y-114752381D02*
X165917619Y-113752381D01*
X165822381Y-113895238D01*
X165727143Y-113990476D01*
X165631905Y-114038095D01*
X166822381Y-113752381D02*
X166917620Y-113752381D01*
X167012858Y-113800000D01*
X167060477Y-113847619D01*
X167108096Y-113942857D01*
X167155715Y-114133333D01*
X167155715Y-114371429D01*
X167108096Y-114561905D01*
X167060477Y-114657143D01*
X167012858Y-114704762D01*
X166917620Y-114752381D01*
X166822381Y-114752381D01*
X166727143Y-114704762D01*
X166679524Y-114657143D01*
X166631905Y-114561905D01*
X166584286Y-114371429D01*
X166584286Y-114133333D01*
X166631905Y-113942857D01*
X166679524Y-113847619D01*
X166727143Y-113800000D01*
X166822381Y-113752381D01*
X167489048Y-113752381D02*
X168108096Y-113752381D01*
X167774762Y-114133333D01*
X167917620Y-114133333D01*
X168012858Y-114180952D01*
X168060477Y-114228571D01*
X168108096Y-114323810D01*
X168108096Y-114561905D01*
X168060477Y-114657143D01*
X168012858Y-114704762D01*
X167917620Y-114752381D01*
X167631905Y-114752381D01*
X167536667Y-114704762D01*
X167489048Y-114657143D01*
X165250953Y-109867381D02*
X164917619Y-109391190D01*
X164679524Y-109867381D02*
X164679524Y-108867381D01*
X165060477Y-108867381D01*
X165155715Y-108915000D01*
X165203334Y-108962619D01*
X165250953Y-109057857D01*
X165250953Y-109200714D01*
X165203334Y-109295952D01*
X165155715Y-109343571D01*
X165060477Y-109391190D01*
X164679524Y-109391190D01*
X166203334Y-109867381D02*
X165631905Y-109867381D01*
X165917619Y-109867381D02*
X165917619Y-108867381D01*
X165822381Y-109010238D01*
X165727143Y-109105476D01*
X165631905Y-109153095D01*
X166822381Y-108867381D02*
X166917620Y-108867381D01*
X167012858Y-108915000D01*
X167060477Y-108962619D01*
X167108096Y-109057857D01*
X167155715Y-109248333D01*
X167155715Y-109486429D01*
X167108096Y-109676905D01*
X167060477Y-109772143D01*
X167012858Y-109819762D01*
X166917620Y-109867381D01*
X166822381Y-109867381D01*
X166727143Y-109819762D01*
X166679524Y-109772143D01*
X166631905Y-109676905D01*
X166584286Y-109486429D01*
X166584286Y-109248333D01*
X166631905Y-109057857D01*
X166679524Y-108962619D01*
X166727143Y-108915000D01*
X166822381Y-108867381D01*
X168012858Y-109200714D02*
X168012858Y-109867381D01*
X167774762Y-108819762D02*
X167536667Y-109534048D01*
X168155715Y-109534048D01*
M02*
