G04 #@! TF.FileFunction,Legend,Top*
%FSLAX46Y46*%
G04 Gerber Fmt 4.6, Leading zero omitted, Abs format (unit mm)*
G04 Created by KiCad (PCBNEW 0.201503020946+5465~21~ubuntu14.04.1-product) date Sat 21 Mar 2015 17:31:31 CET*
%MOMM*%
G01*
G04 APERTURE LIST*
%ADD10C,0.100000*%
%ADD11C,0.127000*%
%ADD12C,0.150000*%
G04 APERTURE END LIST*
D10*
D11*
X172393429Y-116930714D02*
X172393429Y-116168714D01*
X172393429Y-116531571D02*
X172828857Y-116531571D01*
X172828857Y-116930714D02*
X172828857Y-116168714D01*
X173191715Y-116930714D02*
X173191715Y-116422714D01*
X173191715Y-116168714D02*
X173155429Y-116205000D01*
X173191715Y-116241286D01*
X173228000Y-116205000D01*
X173191715Y-116168714D01*
X173191715Y-116241286D01*
X173881143Y-116422714D02*
X173881143Y-117039571D01*
X173844857Y-117112143D01*
X173808572Y-117148429D01*
X173736000Y-117184714D01*
X173627143Y-117184714D01*
X173554572Y-117148429D01*
X173881143Y-116894429D02*
X173808572Y-116930714D01*
X173663429Y-116930714D01*
X173590857Y-116894429D01*
X173554572Y-116858143D01*
X173518286Y-116785571D01*
X173518286Y-116567857D01*
X173554572Y-116495286D01*
X173590857Y-116459000D01*
X173663429Y-116422714D01*
X173808572Y-116422714D01*
X173881143Y-116459000D01*
X174244001Y-116930714D02*
X174244001Y-116168714D01*
X174570572Y-116930714D02*
X174570572Y-116531571D01*
X174534286Y-116459000D01*
X174461715Y-116422714D01*
X174352858Y-116422714D01*
X174280286Y-116459000D01*
X174244001Y-116495286D01*
X148336000Y-116930714D02*
X147973143Y-116930714D01*
X147973143Y-116168714D01*
X148698857Y-116930714D02*
X148626285Y-116894429D01*
X148590000Y-116858143D01*
X148553714Y-116785571D01*
X148553714Y-116567857D01*
X148590000Y-116495286D01*
X148626285Y-116459000D01*
X148698857Y-116422714D01*
X148807714Y-116422714D01*
X148880285Y-116459000D01*
X148916571Y-116495286D01*
X148952857Y-116567857D01*
X148952857Y-116785571D01*
X148916571Y-116858143D01*
X148880285Y-116894429D01*
X148807714Y-116930714D01*
X148698857Y-116930714D01*
X149206857Y-116422714D02*
X149352000Y-116930714D01*
X149497143Y-116567857D01*
X149642286Y-116930714D01*
X149787429Y-116422714D01*
D12*
X151130000Y-107950000D02*
X151130000Y-115570000D01*
X148590000Y-107950000D02*
X148590000Y-115570000D01*
X148310000Y-105130000D02*
X148310000Y-106680000D01*
X151130000Y-115570000D02*
X148590000Y-115570000D01*
X148590000Y-107950000D02*
X151130000Y-107950000D01*
X151410000Y-106680000D02*
X151410000Y-105130000D01*
X151410000Y-105130000D02*
X148310000Y-105130000D01*
X173990000Y-107950000D02*
X173990000Y-115570000D01*
X171450000Y-107950000D02*
X171450000Y-115570000D01*
X171170000Y-105130000D02*
X171170000Y-106680000D01*
X173990000Y-115570000D02*
X171450000Y-115570000D01*
X171450000Y-107950000D02*
X173990000Y-107950000D01*
X174270000Y-106680000D02*
X174270000Y-105130000D01*
X174270000Y-105130000D02*
X171170000Y-105130000D01*
X155032000Y-106793000D02*
X153832000Y-106793000D01*
X153832000Y-105043000D02*
X155032000Y-105043000D01*
X155540000Y-115937000D02*
X154340000Y-115937000D01*
X154340000Y-114187000D02*
X155540000Y-114187000D01*
X167040000Y-114187000D02*
X168240000Y-114187000D01*
X168240000Y-115937000D02*
X167040000Y-115937000D01*
X167040000Y-105297000D02*
X168240000Y-105297000D01*
X168240000Y-107047000D02*
X167040000Y-107047000D01*
X161827160Y-105775760D02*
X161778900Y-105775760D01*
X159028180Y-106476800D02*
X159028180Y-105775760D01*
X159028180Y-105775760D02*
X159277100Y-105775760D01*
X161827160Y-105775760D02*
X162027820Y-105775760D01*
X162027820Y-105775760D02*
X162027820Y-106476800D01*
X159482840Y-115204240D02*
X159531100Y-115204240D01*
X162281820Y-114503200D02*
X162281820Y-115204240D01*
X162281820Y-115204240D02*
X162032900Y-115204240D01*
X159482840Y-115204240D02*
X159282180Y-115204240D01*
X159282180Y-115204240D02*
X159282180Y-114503200D01*
X148169524Y-104592381D02*
X148169524Y-103592381D01*
X148550477Y-103592381D01*
X148645715Y-103640000D01*
X148693334Y-103687619D01*
X148740953Y-103782857D01*
X148740953Y-103925714D01*
X148693334Y-104020952D01*
X148645715Y-104068571D01*
X148550477Y-104116190D01*
X148169524Y-104116190D01*
X149693334Y-104592381D02*
X149121905Y-104592381D01*
X149407619Y-104592381D02*
X149407619Y-103592381D01*
X149312381Y-103735238D01*
X149217143Y-103830476D01*
X149121905Y-103878095D01*
X150312381Y-103592381D02*
X150407620Y-103592381D01*
X150502858Y-103640000D01*
X150550477Y-103687619D01*
X150598096Y-103782857D01*
X150645715Y-103973333D01*
X150645715Y-104211429D01*
X150598096Y-104401905D01*
X150550477Y-104497143D01*
X150502858Y-104544762D01*
X150407620Y-104592381D01*
X150312381Y-104592381D01*
X150217143Y-104544762D01*
X150169524Y-104497143D01*
X150121905Y-104401905D01*
X150074286Y-104211429D01*
X150074286Y-103973333D01*
X150121905Y-103782857D01*
X150169524Y-103687619D01*
X150217143Y-103640000D01*
X150312381Y-103592381D01*
X151598096Y-104592381D02*
X151026667Y-104592381D01*
X151312381Y-104592381D02*
X151312381Y-103592381D01*
X151217143Y-103735238D01*
X151121905Y-103830476D01*
X151026667Y-103878095D01*
X171029524Y-104592381D02*
X171029524Y-103592381D01*
X171410477Y-103592381D01*
X171505715Y-103640000D01*
X171553334Y-103687619D01*
X171600953Y-103782857D01*
X171600953Y-103925714D01*
X171553334Y-104020952D01*
X171505715Y-104068571D01*
X171410477Y-104116190D01*
X171029524Y-104116190D01*
X172553334Y-104592381D02*
X171981905Y-104592381D01*
X172267619Y-104592381D02*
X172267619Y-103592381D01*
X172172381Y-103735238D01*
X172077143Y-103830476D01*
X171981905Y-103878095D01*
X173172381Y-103592381D02*
X173267620Y-103592381D01*
X173362858Y-103640000D01*
X173410477Y-103687619D01*
X173458096Y-103782857D01*
X173505715Y-103973333D01*
X173505715Y-104211429D01*
X173458096Y-104401905D01*
X173410477Y-104497143D01*
X173362858Y-104544762D01*
X173267620Y-104592381D01*
X173172381Y-104592381D01*
X173077143Y-104544762D01*
X173029524Y-104497143D01*
X172981905Y-104401905D01*
X172934286Y-104211429D01*
X172934286Y-103973333D01*
X172981905Y-103782857D01*
X173029524Y-103687619D01*
X173077143Y-103640000D01*
X173172381Y-103592381D01*
X173886667Y-103687619D02*
X173934286Y-103640000D01*
X174029524Y-103592381D01*
X174267620Y-103592381D01*
X174362858Y-103640000D01*
X174410477Y-103687619D01*
X174458096Y-103782857D01*
X174458096Y-103878095D01*
X174410477Y-104020952D01*
X173839048Y-104592381D01*
X174458096Y-104592381D01*
X153566953Y-108402381D02*
X153233619Y-107926190D01*
X152995524Y-108402381D02*
X152995524Y-107402381D01*
X153376477Y-107402381D01*
X153471715Y-107450000D01*
X153519334Y-107497619D01*
X153566953Y-107592857D01*
X153566953Y-107735714D01*
X153519334Y-107830952D01*
X153471715Y-107878571D01*
X153376477Y-107926190D01*
X152995524Y-107926190D01*
X154519334Y-108402381D02*
X153947905Y-108402381D01*
X154233619Y-108402381D02*
X154233619Y-107402381D01*
X154138381Y-107545238D01*
X154043143Y-107640476D01*
X153947905Y-107688095D01*
X155138381Y-107402381D02*
X155233620Y-107402381D01*
X155328858Y-107450000D01*
X155376477Y-107497619D01*
X155424096Y-107592857D01*
X155471715Y-107783333D01*
X155471715Y-108021429D01*
X155424096Y-108211905D01*
X155376477Y-108307143D01*
X155328858Y-108354762D01*
X155233620Y-108402381D01*
X155138381Y-108402381D01*
X155043143Y-108354762D01*
X154995524Y-108307143D01*
X154947905Y-108211905D01*
X154900286Y-108021429D01*
X154900286Y-107783333D01*
X154947905Y-107592857D01*
X154995524Y-107497619D01*
X155043143Y-107450000D01*
X155138381Y-107402381D01*
X156424096Y-108402381D02*
X155852667Y-108402381D01*
X156138381Y-108402381D02*
X156138381Y-107402381D01*
X156043143Y-107545238D01*
X155947905Y-107640476D01*
X155852667Y-107688095D01*
X153820953Y-113414381D02*
X153487619Y-112938190D01*
X153249524Y-113414381D02*
X153249524Y-112414381D01*
X153630477Y-112414381D01*
X153725715Y-112462000D01*
X153773334Y-112509619D01*
X153820953Y-112604857D01*
X153820953Y-112747714D01*
X153773334Y-112842952D01*
X153725715Y-112890571D01*
X153630477Y-112938190D01*
X153249524Y-112938190D01*
X154773334Y-113414381D02*
X154201905Y-113414381D01*
X154487619Y-113414381D02*
X154487619Y-112414381D01*
X154392381Y-112557238D01*
X154297143Y-112652476D01*
X154201905Y-112700095D01*
X155392381Y-112414381D02*
X155487620Y-112414381D01*
X155582858Y-112462000D01*
X155630477Y-112509619D01*
X155678096Y-112604857D01*
X155725715Y-112795333D01*
X155725715Y-113033429D01*
X155678096Y-113223905D01*
X155630477Y-113319143D01*
X155582858Y-113366762D01*
X155487620Y-113414381D01*
X155392381Y-113414381D01*
X155297143Y-113366762D01*
X155249524Y-113319143D01*
X155201905Y-113223905D01*
X155154286Y-113033429D01*
X155154286Y-112795333D01*
X155201905Y-112604857D01*
X155249524Y-112509619D01*
X155297143Y-112462000D01*
X155392381Y-112414381D01*
X156106667Y-112509619D02*
X156154286Y-112462000D01*
X156249524Y-112414381D01*
X156487620Y-112414381D01*
X156582858Y-112462000D01*
X156630477Y-112509619D01*
X156678096Y-112604857D01*
X156678096Y-112700095D01*
X156630477Y-112842952D01*
X156059048Y-113414381D01*
X156678096Y-113414381D01*
X166520953Y-113609381D02*
X166187619Y-113133190D01*
X165949524Y-113609381D02*
X165949524Y-112609381D01*
X166330477Y-112609381D01*
X166425715Y-112657000D01*
X166473334Y-112704619D01*
X166520953Y-112799857D01*
X166520953Y-112942714D01*
X166473334Y-113037952D01*
X166425715Y-113085571D01*
X166330477Y-113133190D01*
X165949524Y-113133190D01*
X167473334Y-113609381D02*
X166901905Y-113609381D01*
X167187619Y-113609381D02*
X167187619Y-112609381D01*
X167092381Y-112752238D01*
X166997143Y-112847476D01*
X166901905Y-112895095D01*
X168092381Y-112609381D02*
X168187620Y-112609381D01*
X168282858Y-112657000D01*
X168330477Y-112704619D01*
X168378096Y-112799857D01*
X168425715Y-112990333D01*
X168425715Y-113228429D01*
X168378096Y-113418905D01*
X168330477Y-113514143D01*
X168282858Y-113561762D01*
X168187620Y-113609381D01*
X168092381Y-113609381D01*
X167997143Y-113561762D01*
X167949524Y-113514143D01*
X167901905Y-113418905D01*
X167854286Y-113228429D01*
X167854286Y-112990333D01*
X167901905Y-112799857D01*
X167949524Y-112704619D01*
X167997143Y-112657000D01*
X168092381Y-112609381D01*
X168759048Y-112609381D02*
X169378096Y-112609381D01*
X169044762Y-112990333D01*
X169187620Y-112990333D01*
X169282858Y-113037952D01*
X169330477Y-113085571D01*
X169378096Y-113180810D01*
X169378096Y-113418905D01*
X169330477Y-113514143D01*
X169282858Y-113561762D01*
X169187620Y-113609381D01*
X168901905Y-113609381D01*
X168806667Y-113561762D01*
X168759048Y-113514143D01*
X166520953Y-108724381D02*
X166187619Y-108248190D01*
X165949524Y-108724381D02*
X165949524Y-107724381D01*
X166330477Y-107724381D01*
X166425715Y-107772000D01*
X166473334Y-107819619D01*
X166520953Y-107914857D01*
X166520953Y-108057714D01*
X166473334Y-108152952D01*
X166425715Y-108200571D01*
X166330477Y-108248190D01*
X165949524Y-108248190D01*
X167473334Y-108724381D02*
X166901905Y-108724381D01*
X167187619Y-108724381D02*
X167187619Y-107724381D01*
X167092381Y-107867238D01*
X166997143Y-107962476D01*
X166901905Y-108010095D01*
X168092381Y-107724381D02*
X168187620Y-107724381D01*
X168282858Y-107772000D01*
X168330477Y-107819619D01*
X168378096Y-107914857D01*
X168425715Y-108105333D01*
X168425715Y-108343429D01*
X168378096Y-108533905D01*
X168330477Y-108629143D01*
X168282858Y-108676762D01*
X168187620Y-108724381D01*
X168092381Y-108724381D01*
X167997143Y-108676762D01*
X167949524Y-108629143D01*
X167901905Y-108533905D01*
X167854286Y-108343429D01*
X167854286Y-108105333D01*
X167901905Y-107914857D01*
X167949524Y-107819619D01*
X167997143Y-107772000D01*
X168092381Y-107724381D01*
X169282858Y-108057714D02*
X169282858Y-108724381D01*
X169044762Y-107676762D02*
X168806667Y-108391048D01*
X169425715Y-108391048D01*
X159353381Y-109259619D02*
X159258143Y-109212000D01*
X159162905Y-109116762D01*
X159020048Y-108973905D01*
X158924809Y-108926286D01*
X158829571Y-108926286D01*
X158877190Y-109164381D02*
X158781952Y-109116762D01*
X158686714Y-109021524D01*
X158639095Y-108831048D01*
X158639095Y-108497714D01*
X158686714Y-108307238D01*
X158781952Y-108212000D01*
X158877190Y-108164381D01*
X159067667Y-108164381D01*
X159162905Y-108212000D01*
X159258143Y-108307238D01*
X159305762Y-108497714D01*
X159305762Y-108831048D01*
X159258143Y-109021524D01*
X159162905Y-109116762D01*
X159067667Y-109164381D01*
X158877190Y-109164381D01*
X160258143Y-109164381D02*
X159686714Y-109164381D01*
X159972428Y-109164381D02*
X159972428Y-108164381D01*
X159877190Y-108307238D01*
X159781952Y-108402476D01*
X159686714Y-108450095D01*
X160877190Y-108164381D02*
X160972429Y-108164381D01*
X161067667Y-108212000D01*
X161115286Y-108259619D01*
X161162905Y-108354857D01*
X161210524Y-108545333D01*
X161210524Y-108783429D01*
X161162905Y-108973905D01*
X161115286Y-109069143D01*
X161067667Y-109116762D01*
X160972429Y-109164381D01*
X160877190Y-109164381D01*
X160781952Y-109116762D01*
X160734333Y-109069143D01*
X160686714Y-108973905D01*
X160639095Y-108783429D01*
X160639095Y-108545333D01*
X160686714Y-108354857D01*
X160734333Y-108259619D01*
X160781952Y-108212000D01*
X160877190Y-108164381D01*
X162162905Y-109164381D02*
X161591476Y-109164381D01*
X161877190Y-109164381D02*
X161877190Y-108164381D01*
X161781952Y-108307238D01*
X161686714Y-108402476D01*
X161591476Y-108450095D01*
X159734381Y-112815619D02*
X159639143Y-112768000D01*
X159543905Y-112672762D01*
X159401048Y-112529905D01*
X159305809Y-112482286D01*
X159210571Y-112482286D01*
X159258190Y-112720381D02*
X159162952Y-112672762D01*
X159067714Y-112577524D01*
X159020095Y-112387048D01*
X159020095Y-112053714D01*
X159067714Y-111863238D01*
X159162952Y-111768000D01*
X159258190Y-111720381D01*
X159448667Y-111720381D01*
X159543905Y-111768000D01*
X159639143Y-111863238D01*
X159686762Y-112053714D01*
X159686762Y-112387048D01*
X159639143Y-112577524D01*
X159543905Y-112672762D01*
X159448667Y-112720381D01*
X159258190Y-112720381D01*
X160639143Y-112720381D02*
X160067714Y-112720381D01*
X160353428Y-112720381D02*
X160353428Y-111720381D01*
X160258190Y-111863238D01*
X160162952Y-111958476D01*
X160067714Y-112006095D01*
X161258190Y-111720381D02*
X161353429Y-111720381D01*
X161448667Y-111768000D01*
X161496286Y-111815619D01*
X161543905Y-111910857D01*
X161591524Y-112101333D01*
X161591524Y-112339429D01*
X161543905Y-112529905D01*
X161496286Y-112625143D01*
X161448667Y-112672762D01*
X161353429Y-112720381D01*
X161258190Y-112720381D01*
X161162952Y-112672762D01*
X161115333Y-112625143D01*
X161067714Y-112529905D01*
X161020095Y-112339429D01*
X161020095Y-112101333D01*
X161067714Y-111910857D01*
X161115333Y-111815619D01*
X161162952Y-111768000D01*
X161258190Y-111720381D01*
X161972476Y-111815619D02*
X162020095Y-111768000D01*
X162115333Y-111720381D01*
X162353429Y-111720381D01*
X162448667Y-111768000D01*
X162496286Y-111815619D01*
X162543905Y-111910857D01*
X162543905Y-112006095D01*
X162496286Y-112148952D01*
X161924857Y-112720381D01*
X162543905Y-112720381D01*
M02*
