G04 #@! TF.FileFunction,Copper,L1,Top,Signal*
%FSLAX46Y46*%
G04 Gerber Fmt 4.6, Leading zero omitted, Abs format (unit mm)*
G04 Created by KiCad (PCBNEW 0.201503020946+5465~21~ubuntu14.04.1-product) date Thu 19 Mar 2015 20:54:09 CET*
%MOMM*%
G01*
G04 APERTURE LIST*
%ADD10C,0.100000*%
%ADD11R,2.032000X1.727200*%
%ADD12O,2.032000X1.727200*%
%ADD13R,0.800000X0.900000*%
%ADD14R,0.700000X1.300000*%
%ADD15C,0.889000*%
%ADD16C,0.254000*%
G04 APERTURE END LIST*
D10*
D11*
X149860000Y-107950000D03*
D12*
X149860000Y-110490000D03*
X149860000Y-113030000D03*
X149860000Y-115570000D03*
D11*
X171450000Y-107950000D03*
D12*
X171450000Y-110490000D03*
X171450000Y-113030000D03*
X171450000Y-115570000D03*
D13*
X161290000Y-106680000D03*
X160340000Y-108680000D03*
X162190000Y-108680000D03*
X161290000Y-116840000D03*
X162240000Y-114840000D03*
X160390000Y-114840000D03*
D14*
X154625000Y-107315000D03*
X156525000Y-107315000D03*
X154625000Y-116205000D03*
X156525000Y-116205000D03*
X167320000Y-116205000D03*
X165420000Y-116205000D03*
X167320000Y-107315000D03*
X165420000Y-107315000D03*
D15*
X153670000Y-111760000D03*
X152628600Y-107873800D03*
X168275000Y-111760000D03*
X169100520Y-107950000D03*
D16*
X162240000Y-113980000D02*
X160340000Y-112080000D01*
X160340000Y-112080000D02*
X160340000Y-108680000D01*
X162240000Y-114840000D02*
X162240000Y-113980000D01*
X159925000Y-108680000D02*
X158115000Y-110490000D01*
X158115000Y-110490000D02*
X155575000Y-110490000D01*
X155575000Y-110490000D02*
X154625000Y-109540000D01*
X154625000Y-109540000D02*
X154625000Y-107315000D01*
X160340000Y-108680000D02*
X159925000Y-108680000D01*
X154625000Y-110805000D02*
X154625000Y-110303163D01*
X153670000Y-111760000D02*
X154625000Y-110805000D01*
X154625000Y-110303163D02*
X154625000Y-116205000D01*
X154625000Y-107315000D02*
X154625000Y-110303163D01*
X152400000Y-107950000D02*
X152476200Y-107873800D01*
X149860000Y-107950000D02*
X152400000Y-107950000D01*
X152476200Y-107873800D02*
X152628600Y-107873800D01*
X163100000Y-108680000D02*
X162190000Y-108680000D01*
X163652200Y-108127800D02*
X163100000Y-108680000D01*
X163652200Y-105867200D02*
X163652200Y-108127800D01*
X163169600Y-105384600D02*
X163652200Y-105867200D01*
X157708600Y-105384600D02*
X163169600Y-105384600D01*
X156525000Y-106568200D02*
X157708600Y-105384600D01*
X156525000Y-107315000D02*
X156525000Y-106568200D01*
X155651200Y-105562400D02*
X156525000Y-106436200D01*
X154178000Y-105562400D02*
X155651200Y-105562400D01*
X153492200Y-109829600D02*
X153492200Y-106248200D01*
X153492200Y-106248200D02*
X154178000Y-105562400D01*
X150291800Y-113030000D02*
X153492200Y-109829600D01*
X156525000Y-106436200D02*
X156525000Y-107315000D01*
X149860000Y-113030000D02*
X150291800Y-113030000D01*
X157590000Y-114840000D02*
X160390000Y-114840000D01*
X156525000Y-115905000D02*
X157590000Y-114840000D01*
X156525000Y-116205000D02*
X156525000Y-115905000D01*
X156525000Y-116855200D02*
X156525000Y-116205000D01*
X155651200Y-117729000D02*
X156525000Y-116855200D01*
X151765000Y-117729000D02*
X155651200Y-117729000D01*
X149860000Y-115824000D02*
X151765000Y-117729000D01*
X149860000Y-115570000D02*
X149860000Y-115824000D01*
X167479836Y-112555164D02*
X167320000Y-112555164D01*
X168275000Y-111760000D02*
X167479836Y-112555164D01*
X167320000Y-112555164D02*
X167320000Y-116205000D01*
X167320000Y-107315000D02*
X167320000Y-112555164D01*
X171450000Y-107950000D02*
X169100520Y-107950000D01*
X161290000Y-109855000D02*
X161925000Y-110490000D01*
X161925000Y-110490000D02*
X163830000Y-110490000D01*
X163830000Y-110490000D02*
X165420000Y-108900000D01*
X165420000Y-108900000D02*
X165420000Y-107315000D01*
X161290000Y-106680000D02*
X161290000Y-109855000D01*
X165420000Y-106131400D02*
X165420000Y-107315000D01*
X165989000Y-105562400D02*
X165420000Y-106131400D01*
X168275000Y-106248200D02*
X167589200Y-105562400D01*
X168275000Y-110007400D02*
X168275000Y-106248200D01*
X171297600Y-113030000D02*
X168275000Y-110007400D01*
X167589200Y-105562400D02*
X165989000Y-105562400D01*
X171450000Y-113030000D02*
X171297600Y-113030000D01*
X163830000Y-116840000D02*
X161290000Y-116840000D01*
X164465000Y-116205000D02*
X163830000Y-116840000D01*
X165420000Y-116205000D02*
X164465000Y-116205000D01*
X171450000Y-117475000D02*
X170815000Y-118110000D01*
X170815000Y-118110000D02*
X166370000Y-118110000D01*
X166370000Y-118110000D02*
X165420000Y-117160000D01*
X165420000Y-117160000D02*
X165420000Y-116205000D01*
X171450000Y-115570000D02*
X171450000Y-117475000D01*
M02*
