G04 #@! TF.FileFunction,Legend,Bot*
%FSLAX46Y46*%
G04 Gerber Fmt 4.6, Leading zero omitted, Abs format (unit mm)*
G04 Created by KiCad (PCBNEW 0.201503020946+5465~21~ubuntu14.04.1-product) date Sat 21 Mar 2015 17:31:31 CET*
%MOMM*%
G01*
G04 APERTURE LIST*
%ADD10C,0.100000*%
G04 APERTURE END LIST*
D10*
G36*
X163171098Y-116880684D02*
X163172393Y-116972911D01*
X163172438Y-116974716D01*
X163178067Y-117197385D01*
X163225578Y-117221892D01*
X163289529Y-117243346D01*
X163356357Y-117245296D01*
X163420293Y-117227886D01*
X163442146Y-117216515D01*
X163475583Y-117198016D01*
X163491334Y-117194368D01*
X163491334Y-116820460D01*
X163496663Y-116750771D01*
X163513729Y-116697203D01*
X163544146Y-116656487D01*
X163587070Y-116626631D01*
X163656194Y-116602583D01*
X163733951Y-116595208D01*
X163812195Y-116603529D01*
X163882778Y-116626569D01*
X163937555Y-116663350D01*
X163943345Y-116669370D01*
X163961636Y-116702353D01*
X163972678Y-116748694D01*
X163976566Y-116802155D01*
X163973395Y-116856499D01*
X163963260Y-116905490D01*
X163946255Y-116942890D01*
X163939054Y-116951725D01*
X163882260Y-116994075D01*
X163812772Y-117021524D01*
X163736979Y-117033139D01*
X163661269Y-117027985D01*
X163592030Y-117005129D01*
X163587980Y-117003047D01*
X163540952Y-116970100D01*
X163510482Y-116927817D01*
X163494686Y-116872637D01*
X163491334Y-116820460D01*
X163491334Y-117194368D01*
X163500738Y-117192190D01*
X163532569Y-117196931D01*
X163550366Y-117201275D01*
X163598818Y-117208957D01*
X163666715Y-117214212D01*
X163732090Y-117215911D01*
X163810662Y-117214042D01*
X163873166Y-117206941D01*
X163937036Y-117192347D01*
X163957001Y-117186766D01*
X164075431Y-117143615D01*
X164168265Y-117088995D01*
X164236292Y-117022022D01*
X164280301Y-116941811D01*
X164301081Y-116847480D01*
X164303059Y-116799360D01*
X164294125Y-116717093D01*
X164266498Y-116646642D01*
X164217057Y-116581777D01*
X164173767Y-116541369D01*
X164087027Y-116483813D01*
X163984938Y-116442324D01*
X163872346Y-116416655D01*
X163754097Y-116406562D01*
X163635038Y-116411799D01*
X163520014Y-116432120D01*
X163413872Y-116467280D01*
X163321457Y-116517034D01*
X163247616Y-116581136D01*
X163241202Y-116588611D01*
X163217650Y-116620769D01*
X163199538Y-116655646D01*
X163186347Y-116696159D01*
X163177556Y-116745225D01*
X163172646Y-116805761D01*
X163171098Y-116880684D01*
X163171098Y-116880684D01*
X163171098Y-116880684D01*
G37*
X163171098Y-116880684D02*
X163172393Y-116972911D01*
X163172438Y-116974716D01*
X163178067Y-117197385D01*
X163225578Y-117221892D01*
X163289529Y-117243346D01*
X163356357Y-117245296D01*
X163420293Y-117227886D01*
X163442146Y-117216515D01*
X163475583Y-117198016D01*
X163491334Y-117194368D01*
X163491334Y-116820460D01*
X163496663Y-116750771D01*
X163513729Y-116697203D01*
X163544146Y-116656487D01*
X163587070Y-116626631D01*
X163656194Y-116602583D01*
X163733951Y-116595208D01*
X163812195Y-116603529D01*
X163882778Y-116626569D01*
X163937555Y-116663350D01*
X163943345Y-116669370D01*
X163961636Y-116702353D01*
X163972678Y-116748694D01*
X163976566Y-116802155D01*
X163973395Y-116856499D01*
X163963260Y-116905490D01*
X163946255Y-116942890D01*
X163939054Y-116951725D01*
X163882260Y-116994075D01*
X163812772Y-117021524D01*
X163736979Y-117033139D01*
X163661269Y-117027985D01*
X163592030Y-117005129D01*
X163587980Y-117003047D01*
X163540952Y-116970100D01*
X163510482Y-116927817D01*
X163494686Y-116872637D01*
X163491334Y-116820460D01*
X163491334Y-117194368D01*
X163500738Y-117192190D01*
X163532569Y-117196931D01*
X163550366Y-117201275D01*
X163598818Y-117208957D01*
X163666715Y-117214212D01*
X163732090Y-117215911D01*
X163810662Y-117214042D01*
X163873166Y-117206941D01*
X163937036Y-117192347D01*
X163957001Y-117186766D01*
X164075431Y-117143615D01*
X164168265Y-117088995D01*
X164236292Y-117022022D01*
X164280301Y-116941811D01*
X164301081Y-116847480D01*
X164303059Y-116799360D01*
X164294125Y-116717093D01*
X164266498Y-116646642D01*
X164217057Y-116581777D01*
X164173767Y-116541369D01*
X164087027Y-116483813D01*
X163984938Y-116442324D01*
X163872346Y-116416655D01*
X163754097Y-116406562D01*
X163635038Y-116411799D01*
X163520014Y-116432120D01*
X163413872Y-116467280D01*
X163321457Y-116517034D01*
X163247616Y-116581136D01*
X163241202Y-116588611D01*
X163217650Y-116620769D01*
X163199538Y-116655646D01*
X163186347Y-116696159D01*
X163177556Y-116745225D01*
X163172646Y-116805761D01*
X163171098Y-116880684D01*
X163171098Y-116880684D01*
G36*
X166454667Y-117125435D02*
X166468594Y-117156213D01*
X166503698Y-117187433D01*
X166549965Y-117211621D01*
X166581475Y-117220063D01*
X166616170Y-117223040D01*
X166649994Y-117219998D01*
X166686042Y-117209311D01*
X166727407Y-117189353D01*
X166777185Y-117158498D01*
X166838469Y-117115122D01*
X166914354Y-117057599D01*
X166963120Y-117019590D01*
X167030129Y-116967624D01*
X167090970Y-116921560D01*
X167142456Y-116883721D01*
X167181403Y-116856427D01*
X167204624Y-116842000D01*
X167209112Y-116840324D01*
X167230738Y-116846915D01*
X167264348Y-116863908D01*
X167279587Y-116873020D01*
X167301258Y-116887182D01*
X167316142Y-116900353D01*
X167325725Y-116916665D01*
X167331491Y-116940247D01*
X167334927Y-116975232D01*
X167337516Y-117025752D01*
X167337942Y-117035354D01*
X167340705Y-117089134D01*
X167344214Y-117126580D01*
X167349708Y-117151677D01*
X167358424Y-117168407D01*
X167371601Y-117180757D01*
X167386001Y-117190048D01*
X167441941Y-117212603D01*
X167506059Y-117222120D01*
X167563800Y-117216859D01*
X167600462Y-117202772D01*
X167631534Y-117185572D01*
X167638913Y-117180105D01*
X167645135Y-117173252D01*
X167650298Y-117163351D01*
X167654500Y-117148738D01*
X167657842Y-117127749D01*
X167660421Y-117098722D01*
X167662335Y-117059993D01*
X167663684Y-117009898D01*
X167664566Y-116946774D01*
X167665080Y-116868959D01*
X167665324Y-116774788D01*
X167665397Y-116662598D01*
X167665400Y-116614450D01*
X167665400Y-116065913D01*
X167614600Y-116041527D01*
X167553207Y-116022719D01*
X167486039Y-116018740D01*
X167422813Y-116028669D01*
X167373244Y-116051582D01*
X167357962Y-116065909D01*
X167353982Y-116080290D01*
X167349807Y-116112173D01*
X167345653Y-116158740D01*
X167341734Y-116217175D01*
X167338267Y-116284660D01*
X167335467Y-116358379D01*
X167335374Y-116361342D01*
X167326734Y-116639604D01*
X167045894Y-116487324D01*
X166962025Y-116442617D01*
X166884033Y-116402479D01*
X166816199Y-116369002D01*
X166762803Y-116344274D01*
X166728124Y-116330384D01*
X166720070Y-116328270D01*
X166666377Y-116328000D01*
X166607945Y-116338845D01*
X166559434Y-116357302D01*
X166540697Y-116371111D01*
X166527456Y-116396143D01*
X166522400Y-116424318D01*
X166525444Y-116439085D01*
X166536494Y-116455102D01*
X166558426Y-116474298D01*
X166594117Y-116498604D01*
X166646446Y-116529949D01*
X166718289Y-116570261D01*
X166812522Y-116621471D01*
X166832056Y-116631980D01*
X166963912Y-116702840D01*
X166831384Y-116804440D01*
X166731014Y-116881578D01*
X166649829Y-116944504D01*
X166585878Y-116994883D01*
X166537207Y-117034377D01*
X166501863Y-117064650D01*
X166477894Y-117087367D01*
X166463347Y-117104191D01*
X166456269Y-117116786D01*
X166454667Y-117125435D01*
X166454667Y-117125435D01*
X166454667Y-117125435D01*
G37*
X166454667Y-117125435D02*
X166468594Y-117156213D01*
X166503698Y-117187433D01*
X166549965Y-117211621D01*
X166581475Y-117220063D01*
X166616170Y-117223040D01*
X166649994Y-117219998D01*
X166686042Y-117209311D01*
X166727407Y-117189353D01*
X166777185Y-117158498D01*
X166838469Y-117115122D01*
X166914354Y-117057599D01*
X166963120Y-117019590D01*
X167030129Y-116967624D01*
X167090970Y-116921560D01*
X167142456Y-116883721D01*
X167181403Y-116856427D01*
X167204624Y-116842000D01*
X167209112Y-116840324D01*
X167230738Y-116846915D01*
X167264348Y-116863908D01*
X167279587Y-116873020D01*
X167301258Y-116887182D01*
X167316142Y-116900353D01*
X167325725Y-116916665D01*
X167331491Y-116940247D01*
X167334927Y-116975232D01*
X167337516Y-117025752D01*
X167337942Y-117035354D01*
X167340705Y-117089134D01*
X167344214Y-117126580D01*
X167349708Y-117151677D01*
X167358424Y-117168407D01*
X167371601Y-117180757D01*
X167386001Y-117190048D01*
X167441941Y-117212603D01*
X167506059Y-117222120D01*
X167563800Y-117216859D01*
X167600462Y-117202772D01*
X167631534Y-117185572D01*
X167638913Y-117180105D01*
X167645135Y-117173252D01*
X167650298Y-117163351D01*
X167654500Y-117148738D01*
X167657842Y-117127749D01*
X167660421Y-117098722D01*
X167662335Y-117059993D01*
X167663684Y-117009898D01*
X167664566Y-116946774D01*
X167665080Y-116868959D01*
X167665324Y-116774788D01*
X167665397Y-116662598D01*
X167665400Y-116614450D01*
X167665400Y-116065913D01*
X167614600Y-116041527D01*
X167553207Y-116022719D01*
X167486039Y-116018740D01*
X167422813Y-116028669D01*
X167373244Y-116051582D01*
X167357962Y-116065909D01*
X167353982Y-116080290D01*
X167349807Y-116112173D01*
X167345653Y-116158740D01*
X167341734Y-116217175D01*
X167338267Y-116284660D01*
X167335467Y-116358379D01*
X167335374Y-116361342D01*
X167326734Y-116639604D01*
X167045894Y-116487324D01*
X166962025Y-116442617D01*
X166884033Y-116402479D01*
X166816199Y-116369002D01*
X166762803Y-116344274D01*
X166728124Y-116330384D01*
X166720070Y-116328270D01*
X166666377Y-116328000D01*
X166607945Y-116338845D01*
X166559434Y-116357302D01*
X166540697Y-116371111D01*
X166527456Y-116396143D01*
X166522400Y-116424318D01*
X166525444Y-116439085D01*
X166536494Y-116455102D01*
X166558426Y-116474298D01*
X166594117Y-116498604D01*
X166646446Y-116529949D01*
X166718289Y-116570261D01*
X166812522Y-116621471D01*
X166832056Y-116631980D01*
X166963912Y-116702840D01*
X166831384Y-116804440D01*
X166731014Y-116881578D01*
X166649829Y-116944504D01*
X166585878Y-116994883D01*
X166537207Y-117034377D01*
X166501863Y-117064650D01*
X166477894Y-117087367D01*
X166463347Y-117104191D01*
X166456269Y-117116786D01*
X166454667Y-117125435D01*
X166454667Y-117125435D01*
G36*
X165914952Y-116626803D02*
X165915337Y-116700345D01*
X165916355Y-116791584D01*
X165916618Y-116811842D01*
X165921267Y-117164684D01*
X165963600Y-117190055D01*
X166019545Y-117212606D01*
X166083665Y-117222119D01*
X166141400Y-117216859D01*
X166178069Y-117202773D01*
X166209134Y-117185585D01*
X166218190Y-117178701D01*
X166225516Y-117169957D01*
X166231330Y-117157229D01*
X166235848Y-117138395D01*
X166239290Y-117111330D01*
X166241873Y-117073912D01*
X166243814Y-117024017D01*
X166245331Y-116959522D01*
X166246643Y-116878304D01*
X166247546Y-116811006D01*
X166248644Y-116716099D01*
X166249136Y-116639317D01*
X166248880Y-116578469D01*
X166247732Y-116531361D01*
X166245547Y-116495800D01*
X166242183Y-116469594D01*
X166237495Y-116450550D01*
X166231340Y-116436476D01*
X166223574Y-116425179D01*
X166222146Y-116423451D01*
X166177270Y-116388671D01*
X166120158Y-116370382D01*
X166058346Y-116368578D01*
X165999371Y-116383250D01*
X165950770Y-116414395D01*
X165942018Y-116423692D01*
X165933960Y-116434635D01*
X165927538Y-116447955D01*
X165922608Y-116465839D01*
X165919028Y-116490477D01*
X165916654Y-116524058D01*
X165915343Y-116568770D01*
X165914952Y-116626803D01*
X165914952Y-116626803D01*
X165914952Y-116626803D01*
G37*
X165914952Y-116626803D02*
X165915337Y-116700345D01*
X165916355Y-116791584D01*
X165916618Y-116811842D01*
X165921267Y-117164684D01*
X165963600Y-117190055D01*
X166019545Y-117212606D01*
X166083665Y-117222119D01*
X166141400Y-117216859D01*
X166178069Y-117202773D01*
X166209134Y-117185585D01*
X166218190Y-117178701D01*
X166225516Y-117169957D01*
X166231330Y-117157229D01*
X166235848Y-117138395D01*
X166239290Y-117111330D01*
X166241873Y-117073912D01*
X166243814Y-117024017D01*
X166245331Y-116959522D01*
X166246643Y-116878304D01*
X166247546Y-116811006D01*
X166248644Y-116716099D01*
X166249136Y-116639317D01*
X166248880Y-116578469D01*
X166247732Y-116531361D01*
X166245547Y-116495800D01*
X166242183Y-116469594D01*
X166237495Y-116450550D01*
X166231340Y-116436476D01*
X166223574Y-116425179D01*
X166222146Y-116423451D01*
X166177270Y-116388671D01*
X166120158Y-116370382D01*
X166058346Y-116368578D01*
X165999371Y-116383250D01*
X165950770Y-116414395D01*
X165942018Y-116423692D01*
X165933960Y-116434635D01*
X165927538Y-116447955D01*
X165922608Y-116465839D01*
X165919028Y-116490477D01*
X165916654Y-116524058D01*
X165915343Y-116568770D01*
X165914952Y-116626803D01*
X165914952Y-116626803D01*
G36*
X164580359Y-116504243D02*
X164596410Y-116541485D01*
X164634253Y-116571634D01*
X164690496Y-116591934D01*
X164758654Y-116594756D01*
X164829616Y-116580749D01*
X164919354Y-116562381D01*
X165015235Y-116558640D01*
X165107243Y-116569005D01*
X165185362Y-116592958D01*
X165199601Y-116599951D01*
X165247242Y-116633195D01*
X165279105Y-116675139D01*
X165297022Y-116729329D01*
X165302827Y-116799315D01*
X165302829Y-116799747D01*
X165296373Y-116872152D01*
X165275180Y-116928619D01*
X165237448Y-116971992D01*
X165181375Y-117005112D01*
X165169463Y-117010097D01*
X165100033Y-117027432D01*
X165014606Y-117033708D01*
X164925709Y-117028824D01*
X164846000Y-117012720D01*
X164778663Y-116996344D01*
X164722650Y-116994166D01*
X164665678Y-117005818D01*
X164661278Y-117007160D01*
X164612780Y-117032595D01*
X164585118Y-117068417D01*
X164584110Y-117106937D01*
X164584687Y-117108379D01*
X164613644Y-117138700D01*
X164670053Y-117166048D01*
X164747625Y-117189204D01*
X164840071Y-117206945D01*
X164941104Y-117218050D01*
X165044433Y-117221299D01*
X165138910Y-117216004D01*
X165267691Y-117192264D01*
X165382994Y-117151394D01*
X165480118Y-117095889D01*
X165554362Y-117028245D01*
X165589167Y-116976989D01*
X165627213Y-116874797D01*
X165635329Y-116772073D01*
X165613809Y-116672352D01*
X165562948Y-116579168D01*
X165555145Y-116568921D01*
X165483758Y-116500543D01*
X165390081Y-116445476D01*
X165278606Y-116404589D01*
X165153821Y-116378751D01*
X165020217Y-116368834D01*
X164882283Y-116375707D01*
X164744509Y-116400240D01*
X164719007Y-116406891D01*
X164642656Y-116435005D01*
X164596107Y-116468103D01*
X164580359Y-116504243D01*
X164580359Y-116504243D01*
X164580359Y-116504243D01*
G37*
X164580359Y-116504243D02*
X164596410Y-116541485D01*
X164634253Y-116571634D01*
X164690496Y-116591934D01*
X164758654Y-116594756D01*
X164829616Y-116580749D01*
X164919354Y-116562381D01*
X165015235Y-116558640D01*
X165107243Y-116569005D01*
X165185362Y-116592958D01*
X165199601Y-116599951D01*
X165247242Y-116633195D01*
X165279105Y-116675139D01*
X165297022Y-116729329D01*
X165302827Y-116799315D01*
X165302829Y-116799747D01*
X165296373Y-116872152D01*
X165275180Y-116928619D01*
X165237448Y-116971992D01*
X165181375Y-117005112D01*
X165169463Y-117010097D01*
X165100033Y-117027432D01*
X165014606Y-117033708D01*
X164925709Y-117028824D01*
X164846000Y-117012720D01*
X164778663Y-116996344D01*
X164722650Y-116994166D01*
X164665678Y-117005818D01*
X164661278Y-117007160D01*
X164612780Y-117032595D01*
X164585118Y-117068417D01*
X164584110Y-117106937D01*
X164584687Y-117108379D01*
X164613644Y-117138700D01*
X164670053Y-117166048D01*
X164747625Y-117189204D01*
X164840071Y-117206945D01*
X164941104Y-117218050D01*
X165044433Y-117221299D01*
X165138910Y-117216004D01*
X165267691Y-117192264D01*
X165382994Y-117151394D01*
X165480118Y-117095889D01*
X165554362Y-117028245D01*
X165589167Y-116976989D01*
X165627213Y-116874797D01*
X165635329Y-116772073D01*
X165613809Y-116672352D01*
X165562948Y-116579168D01*
X165555145Y-116568921D01*
X165483758Y-116500543D01*
X165390081Y-116445476D01*
X165278606Y-116404589D01*
X165153821Y-116378751D01*
X165020217Y-116368834D01*
X164882283Y-116375707D01*
X164744509Y-116400240D01*
X164719007Y-116406891D01*
X164642656Y-116435005D01*
X164596107Y-116468103D01*
X164580359Y-116504243D01*
X164580359Y-116504243D01*
G36*
X161699122Y-116656554D02*
X161699541Y-116730783D01*
X161700500Y-116794410D01*
X161701962Y-116845150D01*
X161703888Y-116880715D01*
X161706242Y-116898820D01*
X161706892Y-116900349D01*
X161715557Y-116924131D01*
X161715278Y-116932542D01*
X161719846Y-116953465D01*
X161735998Y-116986015D01*
X161759635Y-117023813D01*
X161786660Y-117060476D01*
X161812972Y-117089622D01*
X161820352Y-117096141D01*
X161847521Y-117113030D01*
X161869218Y-117117913D01*
X161871043Y-117117431D01*
X161879829Y-117117866D01*
X161876468Y-117122278D01*
X161880859Y-117135254D01*
X161910102Y-117152243D01*
X161956957Y-117170769D01*
X162014182Y-117188355D01*
X162018134Y-117189282D01*
X162018134Y-116781863D01*
X162018134Y-116644927D01*
X162074190Y-116611294D01*
X162150074Y-116578110D01*
X162235420Y-116561174D01*
X162322706Y-116560852D01*
X162404407Y-116577510D01*
X162442919Y-116593372D01*
X162502980Y-116635221D01*
X162541234Y-116689862D01*
X162558647Y-116758902D01*
X162560001Y-116788526D01*
X162555414Y-116850454D01*
X162539579Y-116899822D01*
X162509383Y-116943793D01*
X162479490Y-116973875D01*
X162420553Y-117010551D01*
X162344760Y-117032918D01*
X162260769Y-117040024D01*
X162177243Y-117030919D01*
X162120918Y-117013225D01*
X162082887Y-116993638D01*
X162055204Y-116969985D01*
X162036379Y-116938917D01*
X162024925Y-116897084D01*
X162019355Y-116841137D01*
X162018134Y-116781863D01*
X162018134Y-117189282D01*
X162074537Y-117202525D01*
X162130782Y-117210803D01*
X162136667Y-117211266D01*
X162171433Y-117214247D01*
X162212867Y-117218320D01*
X162259163Y-117220001D01*
X162321089Y-117218452D01*
X162356800Y-117216207D01*
X162451867Y-117202335D01*
X162550676Y-117177370D01*
X162640870Y-117145083D01*
X162710088Y-117109247D01*
X162712383Y-117107699D01*
X162749452Y-117077774D01*
X162789785Y-117038248D01*
X162820416Y-117002868D01*
X162841375Y-116974976D01*
X162855749Y-116951333D01*
X162864782Y-116927060D01*
X162869716Y-116897279D01*
X162871795Y-116857111D01*
X162872261Y-116801675D01*
X162872264Y-116799360D01*
X162871607Y-116740694D01*
X162868864Y-116697453D01*
X162863074Y-116664753D01*
X162853274Y-116637709D01*
X162838501Y-116611437D01*
X162833820Y-116604271D01*
X162770821Y-116534234D01*
X162685027Y-116475039D01*
X162581659Y-116428415D01*
X162465936Y-116396091D01*
X162343079Y-116379799D01*
X162218310Y-116381268D01*
X162175753Y-116386211D01*
X162117295Y-116395203D01*
X162069111Y-116403531D01*
X162047767Y-116407958D01*
X162036538Y-116409453D01*
X162028560Y-116405482D01*
X162023283Y-116393256D01*
X162020156Y-116369986D01*
X162018629Y-116332881D01*
X162018154Y-116279153D01*
X162018134Y-116257666D01*
X162017942Y-116197738D01*
X162016812Y-116154545D01*
X162013914Y-116124502D01*
X162008414Y-116104024D01*
X161999483Y-116089527D01*
X161986289Y-116077425D01*
X161974295Y-116068619D01*
X161919507Y-116043554D01*
X161855263Y-116036235D01*
X161789287Y-116046897D01*
X161752378Y-116061871D01*
X161704867Y-116086383D01*
X161700056Y-116485441D01*
X161699281Y-116574011D01*
X161699122Y-116656554D01*
X161699122Y-116656554D01*
X161699122Y-116656554D01*
G37*
X161699122Y-116656554D02*
X161699541Y-116730783D01*
X161700500Y-116794410D01*
X161701962Y-116845150D01*
X161703888Y-116880715D01*
X161706242Y-116898820D01*
X161706892Y-116900349D01*
X161715557Y-116924131D01*
X161715278Y-116932542D01*
X161719846Y-116953465D01*
X161735998Y-116986015D01*
X161759635Y-117023813D01*
X161786660Y-117060476D01*
X161812972Y-117089622D01*
X161820352Y-117096141D01*
X161847521Y-117113030D01*
X161869218Y-117117913D01*
X161871043Y-117117431D01*
X161879829Y-117117866D01*
X161876468Y-117122278D01*
X161880859Y-117135254D01*
X161910102Y-117152243D01*
X161956957Y-117170769D01*
X162014182Y-117188355D01*
X162018134Y-117189282D01*
X162018134Y-116781863D01*
X162018134Y-116644927D01*
X162074190Y-116611294D01*
X162150074Y-116578110D01*
X162235420Y-116561174D01*
X162322706Y-116560852D01*
X162404407Y-116577510D01*
X162442919Y-116593372D01*
X162502980Y-116635221D01*
X162541234Y-116689862D01*
X162558647Y-116758902D01*
X162560001Y-116788526D01*
X162555414Y-116850454D01*
X162539579Y-116899822D01*
X162509383Y-116943793D01*
X162479490Y-116973875D01*
X162420553Y-117010551D01*
X162344760Y-117032918D01*
X162260769Y-117040024D01*
X162177243Y-117030919D01*
X162120918Y-117013225D01*
X162082887Y-116993638D01*
X162055204Y-116969985D01*
X162036379Y-116938917D01*
X162024925Y-116897084D01*
X162019355Y-116841137D01*
X162018134Y-116781863D01*
X162018134Y-117189282D01*
X162074537Y-117202525D01*
X162130782Y-117210803D01*
X162136667Y-117211266D01*
X162171433Y-117214247D01*
X162212867Y-117218320D01*
X162259163Y-117220001D01*
X162321089Y-117218452D01*
X162356800Y-117216207D01*
X162451867Y-117202335D01*
X162550676Y-117177370D01*
X162640870Y-117145083D01*
X162710088Y-117109247D01*
X162712383Y-117107699D01*
X162749452Y-117077774D01*
X162789785Y-117038248D01*
X162820416Y-117002868D01*
X162841375Y-116974976D01*
X162855749Y-116951333D01*
X162864782Y-116927060D01*
X162869716Y-116897279D01*
X162871795Y-116857111D01*
X162872261Y-116801675D01*
X162872264Y-116799360D01*
X162871607Y-116740694D01*
X162868864Y-116697453D01*
X162863074Y-116664753D01*
X162853274Y-116637709D01*
X162838501Y-116611437D01*
X162833820Y-116604271D01*
X162770821Y-116534234D01*
X162685027Y-116475039D01*
X162581659Y-116428415D01*
X162465936Y-116396091D01*
X162343079Y-116379799D01*
X162218310Y-116381268D01*
X162175753Y-116386211D01*
X162117295Y-116395203D01*
X162069111Y-116403531D01*
X162047767Y-116407958D01*
X162036538Y-116409453D01*
X162028560Y-116405482D01*
X162023283Y-116393256D01*
X162020156Y-116369986D01*
X162018629Y-116332881D01*
X162018154Y-116279153D01*
X162018134Y-116257666D01*
X162017942Y-116197738D01*
X162016812Y-116154545D01*
X162013914Y-116124502D01*
X162008414Y-116104024D01*
X161999483Y-116089527D01*
X161986289Y-116077425D01*
X161974295Y-116068619D01*
X161919507Y-116043554D01*
X161855263Y-116036235D01*
X161789287Y-116046897D01*
X161752378Y-116061871D01*
X161704867Y-116086383D01*
X161700056Y-116485441D01*
X161699281Y-116574011D01*
X161699122Y-116656554D01*
X161699122Y-116656554D01*
G36*
X168029467Y-117146831D02*
X168087040Y-117181375D01*
X168144614Y-117215920D01*
X168215734Y-117215880D01*
X168215734Y-117104160D01*
X168215734Y-116612495D01*
X168215734Y-116120830D01*
X168567100Y-115912903D01*
X168665642Y-115854688D01*
X168764296Y-115796586D01*
X168858209Y-115741441D01*
X168942532Y-115692098D01*
X169012410Y-115651401D01*
X169062401Y-115622535D01*
X169206334Y-115540094D01*
X169803234Y-115539807D01*
X170400134Y-115539520D01*
X170400134Y-116321840D01*
X170400134Y-117104160D01*
X169307934Y-117104160D01*
X168215734Y-117104160D01*
X168215734Y-117215880D01*
X169293540Y-117215275D01*
X169488507Y-117215046D01*
X169674042Y-117214597D01*
X169847283Y-117213948D01*
X170005369Y-117213121D01*
X170145439Y-117212139D01*
X170264631Y-117211022D01*
X170360083Y-117209793D01*
X170428935Y-117208473D01*
X170468325Y-117207085D01*
X170476334Y-117206315D01*
X170512943Y-117192539D01*
X170544067Y-117175412D01*
X170550205Y-117170916D01*
X170555553Y-117165266D01*
X170560165Y-117157118D01*
X170564095Y-117145125D01*
X170567399Y-117127940D01*
X170570131Y-117104217D01*
X170572344Y-117072610D01*
X170574094Y-117031772D01*
X170575435Y-116980358D01*
X170576421Y-116917021D01*
X170577106Y-116840414D01*
X170577546Y-116749191D01*
X170577794Y-116642007D01*
X170577905Y-116517514D01*
X170577933Y-116374367D01*
X170577934Y-116337551D01*
X170577836Y-116183931D01*
X170577522Y-116049449D01*
X170576961Y-115932924D01*
X170576121Y-115833173D01*
X170574971Y-115749015D01*
X170573479Y-115679269D01*
X170571616Y-115622753D01*
X170569349Y-115578285D01*
X170566648Y-115544684D01*
X170563480Y-115520768D01*
X170559815Y-115505355D01*
X170555744Y-115497398D01*
X170542560Y-115483366D01*
X170528258Y-115471975D01*
X170509365Y-115462927D01*
X170482407Y-115455925D01*
X170443911Y-115450671D01*
X170390403Y-115446867D01*
X170318409Y-115444214D01*
X170224455Y-115442416D01*
X170105070Y-115441175D01*
X169956777Y-115440192D01*
X169883667Y-115439777D01*
X169743205Y-115439190D01*
X169610062Y-115439008D01*
X169488924Y-115439209D01*
X169384478Y-115439772D01*
X169301410Y-115440676D01*
X169244409Y-115441896D01*
X169223267Y-115442871D01*
X169199349Y-115444640D01*
X169178623Y-115446944D01*
X169158156Y-115451211D01*
X169135014Y-115458867D01*
X169106261Y-115471339D01*
X169068965Y-115490055D01*
X169020190Y-115516441D01*
X168957002Y-115551924D01*
X168876467Y-115597930D01*
X168775652Y-115655888D01*
X168723390Y-115685958D01*
X168648278Y-115729170D01*
X168557693Y-115781287D01*
X168460606Y-115837146D01*
X168365986Y-115891589D01*
X168316990Y-115919781D01*
X168242523Y-115963112D01*
X168174930Y-116003343D01*
X168118730Y-116037716D01*
X168078440Y-116063468D01*
X168059212Y-116077261D01*
X168052593Y-116084384D01*
X168047036Y-116094176D01*
X168042450Y-116108346D01*
X168038741Y-116128602D01*
X168035818Y-116156653D01*
X168033588Y-116194208D01*
X168031958Y-116242976D01*
X168030836Y-116304665D01*
X168030130Y-116380984D01*
X168029746Y-116473642D01*
X168029594Y-116584348D01*
X168029579Y-116625115D01*
X168029467Y-117146831D01*
X168029467Y-117146831D01*
X168029467Y-117146831D01*
G37*
X168029467Y-117146831D02*
X168087040Y-117181375D01*
X168144614Y-117215920D01*
X168215734Y-117215880D01*
X168215734Y-117104160D01*
X168215734Y-116612495D01*
X168215734Y-116120830D01*
X168567100Y-115912903D01*
X168665642Y-115854688D01*
X168764296Y-115796586D01*
X168858209Y-115741441D01*
X168942532Y-115692098D01*
X169012410Y-115651401D01*
X169062401Y-115622535D01*
X169206334Y-115540094D01*
X169803234Y-115539807D01*
X170400134Y-115539520D01*
X170400134Y-116321840D01*
X170400134Y-117104160D01*
X169307934Y-117104160D01*
X168215734Y-117104160D01*
X168215734Y-117215880D01*
X169293540Y-117215275D01*
X169488507Y-117215046D01*
X169674042Y-117214597D01*
X169847283Y-117213948D01*
X170005369Y-117213121D01*
X170145439Y-117212139D01*
X170264631Y-117211022D01*
X170360083Y-117209793D01*
X170428935Y-117208473D01*
X170468325Y-117207085D01*
X170476334Y-117206315D01*
X170512943Y-117192539D01*
X170544067Y-117175412D01*
X170550205Y-117170916D01*
X170555553Y-117165266D01*
X170560165Y-117157118D01*
X170564095Y-117145125D01*
X170567399Y-117127940D01*
X170570131Y-117104217D01*
X170572344Y-117072610D01*
X170574094Y-117031772D01*
X170575435Y-116980358D01*
X170576421Y-116917021D01*
X170577106Y-116840414D01*
X170577546Y-116749191D01*
X170577794Y-116642007D01*
X170577905Y-116517514D01*
X170577933Y-116374367D01*
X170577934Y-116337551D01*
X170577836Y-116183931D01*
X170577522Y-116049449D01*
X170576961Y-115932924D01*
X170576121Y-115833173D01*
X170574971Y-115749015D01*
X170573479Y-115679269D01*
X170571616Y-115622753D01*
X170569349Y-115578285D01*
X170566648Y-115544684D01*
X170563480Y-115520768D01*
X170559815Y-115505355D01*
X170555744Y-115497398D01*
X170542560Y-115483366D01*
X170528258Y-115471975D01*
X170509365Y-115462927D01*
X170482407Y-115455925D01*
X170443911Y-115450671D01*
X170390403Y-115446867D01*
X170318409Y-115444214D01*
X170224455Y-115442416D01*
X170105070Y-115441175D01*
X169956777Y-115440192D01*
X169883667Y-115439777D01*
X169743205Y-115439190D01*
X169610062Y-115439008D01*
X169488924Y-115439209D01*
X169384478Y-115439772D01*
X169301410Y-115440676D01*
X169244409Y-115441896D01*
X169223267Y-115442871D01*
X169199349Y-115444640D01*
X169178623Y-115446944D01*
X169158156Y-115451211D01*
X169135014Y-115458867D01*
X169106261Y-115471339D01*
X169068965Y-115490055D01*
X169020190Y-115516441D01*
X168957002Y-115551924D01*
X168876467Y-115597930D01*
X168775652Y-115655888D01*
X168723390Y-115685958D01*
X168648278Y-115729170D01*
X168557693Y-115781287D01*
X168460606Y-115837146D01*
X168365986Y-115891589D01*
X168316990Y-115919781D01*
X168242523Y-115963112D01*
X168174930Y-116003343D01*
X168118730Y-116037716D01*
X168078440Y-116063468D01*
X168059212Y-116077261D01*
X168052593Y-116084384D01*
X168047036Y-116094176D01*
X168042450Y-116108346D01*
X168038741Y-116128602D01*
X168035818Y-116156653D01*
X168033588Y-116194208D01*
X168031958Y-116242976D01*
X168030836Y-116304665D01*
X168030130Y-116380984D01*
X168029746Y-116473642D01*
X168029594Y-116584348D01*
X168029579Y-116625115D01*
X168029467Y-117146831D01*
X168029467Y-117146831D01*
G36*
X165924040Y-116097620D02*
X165924078Y-116138918D01*
X165947822Y-116177184D01*
X165989672Y-116204329D01*
X166052887Y-116218258D01*
X166122948Y-116217168D01*
X166184987Y-116201422D01*
X166189287Y-116199479D01*
X166231462Y-116168542D01*
X166247148Y-116131922D01*
X166239179Y-116094108D01*
X166210386Y-116059589D01*
X166163602Y-116032852D01*
X166101658Y-116018386D01*
X166074170Y-116017040D01*
X166025494Y-116025583D01*
X165976502Y-116047191D01*
X165938438Y-116075827D01*
X165924040Y-116097620D01*
X165924040Y-116097620D01*
X165924040Y-116097620D01*
G37*
X165924040Y-116097620D02*
X165924078Y-116138918D01*
X165947822Y-116177184D01*
X165989672Y-116204329D01*
X166052887Y-116218258D01*
X166122948Y-116217168D01*
X166184987Y-116201422D01*
X166189287Y-116199479D01*
X166231462Y-116168542D01*
X166247148Y-116131922D01*
X166239179Y-116094108D01*
X166210386Y-116059589D01*
X166163602Y-116032852D01*
X166101658Y-116018386D01*
X166074170Y-116017040D01*
X166025494Y-116025583D01*
X165976502Y-116047191D01*
X165938438Y-116075827D01*
X165924040Y-116097620D01*
X165924040Y-116097620D01*
G36*
X168029467Y-115662656D02*
X168029914Y-115729445D01*
X168031514Y-115778801D01*
X168034658Y-115813605D01*
X168039738Y-115836738D01*
X168047144Y-115851083D01*
X168056077Y-115858834D01*
X168078373Y-115870061D01*
X168101621Y-115875521D01*
X168128925Y-115874020D01*
X168163392Y-115864365D01*
X168208126Y-115845363D01*
X168266233Y-115815821D01*
X168340817Y-115774547D01*
X168434986Y-115720346D01*
X168470682Y-115699540D01*
X168564048Y-115644850D01*
X168635767Y-115602237D01*
X168688641Y-115569714D01*
X168725474Y-115545298D01*
X168749069Y-115527004D01*
X168762229Y-115512848D01*
X168767756Y-115500844D01*
X168768453Y-115489009D01*
X168768435Y-115488720D01*
X168766067Y-115453160D01*
X168418973Y-115450401D01*
X168300966Y-115449611D01*
X168212288Y-115449494D01*
X168148411Y-115450229D01*
X168104808Y-115451998D01*
X168076951Y-115454979D01*
X168060312Y-115459353D01*
X168050673Y-115465043D01*
X168042062Y-115479737D01*
X168035829Y-115508749D01*
X168031794Y-115553741D01*
X168029780Y-115616376D01*
X168029467Y-115662656D01*
X168029467Y-115662656D01*
X168029467Y-115662656D01*
G37*
X168029467Y-115662656D02*
X168029914Y-115729445D01*
X168031514Y-115778801D01*
X168034658Y-115813605D01*
X168039738Y-115836738D01*
X168047144Y-115851083D01*
X168056077Y-115858834D01*
X168078373Y-115870061D01*
X168101621Y-115875521D01*
X168128925Y-115874020D01*
X168163392Y-115864365D01*
X168208126Y-115845363D01*
X168266233Y-115815821D01*
X168340817Y-115774547D01*
X168434986Y-115720346D01*
X168470682Y-115699540D01*
X168564048Y-115644850D01*
X168635767Y-115602237D01*
X168688641Y-115569714D01*
X168725474Y-115545298D01*
X168749069Y-115527004D01*
X168762229Y-115512848D01*
X168767756Y-115500844D01*
X168768453Y-115489009D01*
X168768435Y-115488720D01*
X168766067Y-115453160D01*
X168418973Y-115450401D01*
X168300966Y-115449611D01*
X168212288Y-115449494D01*
X168148411Y-115450229D01*
X168104808Y-115451998D01*
X168076951Y-115454979D01*
X168060312Y-115459353D01*
X168050673Y-115465043D01*
X168042062Y-115479737D01*
X168035829Y-115508749D01*
X168031794Y-115553741D01*
X168029780Y-115616376D01*
X168029467Y-115662656D01*
X168029467Y-115662656D01*
G36*
X168334267Y-116697760D02*
X168335575Y-116704588D01*
X168342371Y-116709687D01*
X168358967Y-116713307D01*
X168389673Y-116715703D01*
X168438800Y-116717125D01*
X168510660Y-116717826D01*
X168609563Y-116718059D01*
X168681400Y-116718080D01*
X169028534Y-116718080D01*
X169028534Y-116840000D01*
X169028866Y-116891465D01*
X169030487Y-116925980D01*
X169034330Y-116946910D01*
X169041333Y-116957623D01*
X169052430Y-116961486D01*
X169062401Y-116961920D01*
X169075802Y-116960864D01*
X169085109Y-116955617D01*
X169091065Y-116943055D01*
X169094414Y-116920055D01*
X169095899Y-116883495D01*
X169096263Y-116830252D01*
X169096267Y-116819680D01*
X169096267Y-116677440D01*
X168715267Y-116677440D01*
X168592328Y-116677505D01*
X168499140Y-116677846D01*
X168431586Y-116678683D01*
X168385550Y-116680236D01*
X168356916Y-116682724D01*
X168341569Y-116686366D01*
X168335391Y-116691383D01*
X168334267Y-116697760D01*
X168334267Y-116697760D01*
X168334267Y-116697760D01*
G37*
X168334267Y-116697760D02*
X168335575Y-116704588D01*
X168342371Y-116709687D01*
X168358967Y-116713307D01*
X168389673Y-116715703D01*
X168438800Y-116717125D01*
X168510660Y-116717826D01*
X168609563Y-116718059D01*
X168681400Y-116718080D01*
X169028534Y-116718080D01*
X169028534Y-116840000D01*
X169028866Y-116891465D01*
X169030487Y-116925980D01*
X169034330Y-116946910D01*
X169041333Y-116957623D01*
X169052430Y-116961486D01*
X169062401Y-116961920D01*
X169075802Y-116960864D01*
X169085109Y-116955617D01*
X169091065Y-116943055D01*
X169094414Y-116920055D01*
X169095899Y-116883495D01*
X169096263Y-116830252D01*
X169096267Y-116819680D01*
X169096267Y-116677440D01*
X168715267Y-116677440D01*
X168592328Y-116677505D01*
X168499140Y-116677846D01*
X168431586Y-116678683D01*
X168385550Y-116680236D01*
X168356916Y-116682724D01*
X168341569Y-116686366D01*
X168335391Y-116691383D01*
X168334267Y-116697760D01*
X168334267Y-116697760D01*
G36*
X168317288Y-116337746D02*
X168406743Y-116390753D01*
X168453798Y-116417914D01*
X168488099Y-116433730D01*
X168489876Y-116434139D01*
X168489876Y-116341787D01*
X168495520Y-116325875D01*
X168497314Y-116324106D01*
X168510925Y-116316155D01*
X168536121Y-116310690D01*
X168579012Y-116307110D01*
X168645707Y-116304812D01*
X168704373Y-116303727D01*
X168893067Y-116300854D01*
X168893067Y-116336747D01*
X168893067Y-116372640D01*
X168719501Y-116372316D01*
X168628708Y-116371131D01*
X168566263Y-116367702D01*
X168526784Y-116361628D01*
X168512441Y-116356803D01*
X168489876Y-116341787D01*
X168489876Y-116434139D01*
X168520766Y-116441266D01*
X168562916Y-116443590D01*
X168598898Y-116443760D01*
X168665261Y-116442984D01*
X168749635Y-116440926D01*
X168836283Y-116437989D01*
X168856599Y-116437158D01*
X169011601Y-116430557D01*
X169011601Y-116401333D01*
X169011601Y-116372110D01*
X169269834Y-116374915D01*
X169528067Y-116377720D01*
X169528641Y-116410766D01*
X169533990Y-116431071D01*
X169552446Y-116452365D01*
X169588725Y-116479036D01*
X169629711Y-116504746D01*
X169730207Y-116565680D01*
X169630611Y-116626067D01*
X169584107Y-116655010D01*
X169553356Y-116678222D01*
X169534997Y-116701229D01*
X169525670Y-116729560D01*
X169522012Y-116768745D01*
X169521012Y-116806336D01*
X169519600Y-116879352D01*
X169464567Y-116882536D01*
X169424470Y-116888294D01*
X169411576Y-116900688D01*
X169411650Y-116903500D01*
X169414774Y-116928284D01*
X169415884Y-116936520D01*
X169423144Y-116943986D01*
X169446292Y-116948632D01*
X169491157Y-116951030D01*
X169563568Y-116951756D01*
X169570400Y-116951760D01*
X169722800Y-116951760D01*
X169722800Y-116916200D01*
X169719969Y-116892308D01*
X169705605Y-116882509D01*
X169672000Y-116880640D01*
X169621200Y-116880640D01*
X169621200Y-116801260D01*
X169622154Y-116760399D01*
X169626747Y-116734018D01*
X169637572Y-116716287D01*
X169657227Y-116701378D01*
X169668694Y-116694580D01*
X169707535Y-116674146D01*
X169729087Y-116669662D01*
X169738182Y-116681688D01*
X169739734Y-116702840D01*
X169742589Y-116726739D01*
X169756926Y-116736542D01*
X169789792Y-116738400D01*
X169839850Y-116738400D01*
X169844825Y-116664740D01*
X169849801Y-116591080D01*
X170048767Y-116588217D01*
X170247734Y-116585355D01*
X170247734Y-116555197D01*
X170247734Y-116525040D01*
X170044534Y-116525040D01*
X169841334Y-116525040D01*
X169841334Y-116453920D01*
X169841334Y-116382800D01*
X169790534Y-116382800D01*
X169757960Y-116384404D01*
X169743480Y-116393101D01*
X169739814Y-116414713D01*
X169739734Y-116423440D01*
X169736154Y-116452465D01*
X169723235Y-116462364D01*
X169697705Y-116454001D01*
X169674952Y-116440565D01*
X169657610Y-116427267D01*
X169646706Y-116411066D01*
X169640798Y-116387186D01*
X169638443Y-116350850D01*
X169638134Y-116318645D01*
X169638134Y-116220240D01*
X169688934Y-116220240D01*
X169739734Y-116220240D01*
X169739734Y-116058323D01*
X169739734Y-115896407D01*
X169684700Y-115893223D01*
X169629667Y-115890040D01*
X169624928Y-115760500D01*
X169620189Y-115630960D01*
X169569895Y-115630960D01*
X169519600Y-115630960D01*
X169519600Y-115763040D01*
X169519600Y-115895120D01*
X169468800Y-115895120D01*
X169418000Y-115895120D01*
X169418000Y-116057036D01*
X169418000Y-116218952D01*
X169473034Y-116222136D01*
X169507882Y-116225803D01*
X169519600Y-116232517D01*
X169519600Y-116159280D01*
X169519600Y-116057680D01*
X169519600Y-115956080D01*
X169570400Y-115956080D01*
X169621200Y-115956080D01*
X169621200Y-116057680D01*
X169621200Y-116159280D01*
X169570400Y-116159280D01*
X169519600Y-116159280D01*
X169519600Y-116232517D01*
X169524818Y-116235507D01*
X169531783Y-116257360D01*
X169533274Y-116268500D01*
X169538481Y-116311679D01*
X169275041Y-116311680D01*
X169011601Y-116311680D01*
X169011601Y-116271040D01*
X169011601Y-116230400D01*
X168752789Y-116230400D01*
X168493977Y-116230400D01*
X168405632Y-116284073D01*
X168317288Y-116337746D01*
X168317288Y-116337746D01*
X168317288Y-116337746D01*
G37*
X168317288Y-116337746D02*
X168406743Y-116390753D01*
X168453798Y-116417914D01*
X168488099Y-116433730D01*
X168489876Y-116434139D01*
X168489876Y-116341787D01*
X168495520Y-116325875D01*
X168497314Y-116324106D01*
X168510925Y-116316155D01*
X168536121Y-116310690D01*
X168579012Y-116307110D01*
X168645707Y-116304812D01*
X168704373Y-116303727D01*
X168893067Y-116300854D01*
X168893067Y-116336747D01*
X168893067Y-116372640D01*
X168719501Y-116372316D01*
X168628708Y-116371131D01*
X168566263Y-116367702D01*
X168526784Y-116361628D01*
X168512441Y-116356803D01*
X168489876Y-116341787D01*
X168489876Y-116434139D01*
X168520766Y-116441266D01*
X168562916Y-116443590D01*
X168598898Y-116443760D01*
X168665261Y-116442984D01*
X168749635Y-116440926D01*
X168836283Y-116437989D01*
X168856599Y-116437158D01*
X169011601Y-116430557D01*
X169011601Y-116401333D01*
X169011601Y-116372110D01*
X169269834Y-116374915D01*
X169528067Y-116377720D01*
X169528641Y-116410766D01*
X169533990Y-116431071D01*
X169552446Y-116452365D01*
X169588725Y-116479036D01*
X169629711Y-116504746D01*
X169730207Y-116565680D01*
X169630611Y-116626067D01*
X169584107Y-116655010D01*
X169553356Y-116678222D01*
X169534997Y-116701229D01*
X169525670Y-116729560D01*
X169522012Y-116768745D01*
X169521012Y-116806336D01*
X169519600Y-116879352D01*
X169464567Y-116882536D01*
X169424470Y-116888294D01*
X169411576Y-116900688D01*
X169411650Y-116903500D01*
X169414774Y-116928284D01*
X169415884Y-116936520D01*
X169423144Y-116943986D01*
X169446292Y-116948632D01*
X169491157Y-116951030D01*
X169563568Y-116951756D01*
X169570400Y-116951760D01*
X169722800Y-116951760D01*
X169722800Y-116916200D01*
X169719969Y-116892308D01*
X169705605Y-116882509D01*
X169672000Y-116880640D01*
X169621200Y-116880640D01*
X169621200Y-116801260D01*
X169622154Y-116760399D01*
X169626747Y-116734018D01*
X169637572Y-116716287D01*
X169657227Y-116701378D01*
X169668694Y-116694580D01*
X169707535Y-116674146D01*
X169729087Y-116669662D01*
X169738182Y-116681688D01*
X169739734Y-116702840D01*
X169742589Y-116726739D01*
X169756926Y-116736542D01*
X169789792Y-116738400D01*
X169839850Y-116738400D01*
X169844825Y-116664740D01*
X169849801Y-116591080D01*
X170048767Y-116588217D01*
X170247734Y-116585355D01*
X170247734Y-116555197D01*
X170247734Y-116525040D01*
X170044534Y-116525040D01*
X169841334Y-116525040D01*
X169841334Y-116453920D01*
X169841334Y-116382800D01*
X169790534Y-116382800D01*
X169757960Y-116384404D01*
X169743480Y-116393101D01*
X169739814Y-116414713D01*
X169739734Y-116423440D01*
X169736154Y-116452465D01*
X169723235Y-116462364D01*
X169697705Y-116454001D01*
X169674952Y-116440565D01*
X169657610Y-116427267D01*
X169646706Y-116411066D01*
X169640798Y-116387186D01*
X169638443Y-116350850D01*
X169638134Y-116318645D01*
X169638134Y-116220240D01*
X169688934Y-116220240D01*
X169739734Y-116220240D01*
X169739734Y-116058323D01*
X169739734Y-115896407D01*
X169684700Y-115893223D01*
X169629667Y-115890040D01*
X169624928Y-115760500D01*
X169620189Y-115630960D01*
X169569895Y-115630960D01*
X169519600Y-115630960D01*
X169519600Y-115763040D01*
X169519600Y-115895120D01*
X169468800Y-115895120D01*
X169418000Y-115895120D01*
X169418000Y-116057036D01*
X169418000Y-116218952D01*
X169473034Y-116222136D01*
X169507882Y-116225803D01*
X169519600Y-116232517D01*
X169519600Y-116159280D01*
X169519600Y-116057680D01*
X169519600Y-115956080D01*
X169570400Y-115956080D01*
X169621200Y-115956080D01*
X169621200Y-116057680D01*
X169621200Y-116159280D01*
X169570400Y-116159280D01*
X169519600Y-116159280D01*
X169519600Y-116232517D01*
X169524818Y-116235507D01*
X169531783Y-116257360D01*
X169533274Y-116268500D01*
X169538481Y-116311679D01*
X169275041Y-116311680D01*
X169011601Y-116311680D01*
X169011601Y-116271040D01*
X169011601Y-116230400D01*
X168752789Y-116230400D01*
X168493977Y-116230400D01*
X168405632Y-116284073D01*
X168317288Y-116337746D01*
X168317288Y-116337746D01*
G36*
X168351200Y-116951760D02*
X168452800Y-116951760D01*
X168554400Y-116951760D01*
X168554400Y-116916200D01*
X168554400Y-116880640D01*
X168452800Y-116880640D01*
X168351200Y-116880640D01*
X168351200Y-116916200D01*
X168351200Y-116951760D01*
X168351200Y-116951760D01*
X168351200Y-116951760D01*
G37*
X168351200Y-116951760D02*
X168452800Y-116951760D01*
X168554400Y-116951760D01*
X168554400Y-116916200D01*
X168554400Y-116880640D01*
X168452800Y-116880640D01*
X168351200Y-116880640D01*
X168351200Y-116916200D01*
X168351200Y-116951760D01*
X168351200Y-116951760D01*
G36*
X168774534Y-116916200D02*
X168776464Y-116929853D01*
X168787355Y-116937459D01*
X168814858Y-116940780D01*
X168866624Y-116941585D01*
X168884601Y-116941600D01*
X168943768Y-116941154D01*
X168976723Y-116938641D01*
X168991118Y-116932294D01*
X168994604Y-116920348D01*
X168994667Y-116916200D01*
X168992737Y-116902546D01*
X168981846Y-116894940D01*
X168954343Y-116891619D01*
X168902577Y-116890814D01*
X168884601Y-116890800D01*
X168825433Y-116891245D01*
X168792478Y-116893758D01*
X168778083Y-116900105D01*
X168774597Y-116912051D01*
X168774534Y-116916200D01*
X168774534Y-116916200D01*
X168774534Y-116916200D01*
G37*
X168774534Y-116916200D02*
X168776464Y-116929853D01*
X168787355Y-116937459D01*
X168814858Y-116940780D01*
X168866624Y-116941585D01*
X168884601Y-116941600D01*
X168943768Y-116941154D01*
X168976723Y-116938641D01*
X168991118Y-116932294D01*
X168994604Y-116920348D01*
X168994667Y-116916200D01*
X168992737Y-116902546D01*
X168981846Y-116894940D01*
X168954343Y-116891619D01*
X168902577Y-116890814D01*
X168884601Y-116890800D01*
X168825433Y-116891245D01*
X168792478Y-116893758D01*
X168778083Y-116900105D01*
X168774597Y-116912051D01*
X168774534Y-116916200D01*
X168774534Y-116916200D01*
G36*
X168774534Y-116773960D02*
X168776685Y-116788037D01*
X168788440Y-116795637D01*
X168817752Y-116798748D01*
X168872573Y-116799359D01*
X168876134Y-116799360D01*
X168932442Y-116798822D01*
X168962843Y-116795883D01*
X168975288Y-116788555D01*
X168977732Y-116774850D01*
X168977734Y-116773960D01*
X168975583Y-116759882D01*
X168963827Y-116752282D01*
X168934516Y-116749171D01*
X168879695Y-116748560D01*
X168876134Y-116748560D01*
X168819826Y-116749097D01*
X168789425Y-116752036D01*
X168776979Y-116759364D01*
X168774536Y-116773069D01*
X168774534Y-116773960D01*
X168774534Y-116773960D01*
X168774534Y-116773960D01*
G37*
X168774534Y-116773960D02*
X168776685Y-116788037D01*
X168788440Y-116795637D01*
X168817752Y-116798748D01*
X168872573Y-116799359D01*
X168876134Y-116799360D01*
X168932442Y-116798822D01*
X168962843Y-116795883D01*
X168975288Y-116788555D01*
X168977732Y-116774850D01*
X168977734Y-116773960D01*
X168975583Y-116759882D01*
X168963827Y-116752282D01*
X168934516Y-116749171D01*
X168879695Y-116748560D01*
X168876134Y-116748560D01*
X168819826Y-116749097D01*
X168789425Y-116752036D01*
X168776979Y-116759364D01*
X168774536Y-116773069D01*
X168774534Y-116773960D01*
X168774534Y-116773960D01*
G36*
X168353246Y-116787288D02*
X168360605Y-116794004D01*
X168382580Y-116797612D01*
X168425419Y-116799076D01*
X168495370Y-116799359D01*
X168502423Y-116799360D01*
X168574899Y-116799170D01*
X168620002Y-116797874D01*
X168644223Y-116794381D01*
X168654054Y-116787602D01*
X168655990Y-116776444D01*
X168656000Y-116773564D01*
X168656000Y-116747768D01*
X168507834Y-116750704D01*
X168436575Y-116752468D01*
X168392351Y-116755073D01*
X168368334Y-116759668D01*
X168357696Y-116767400D01*
X168354256Y-116776500D01*
X168353246Y-116787288D01*
X168353246Y-116787288D01*
X168353246Y-116787288D01*
G37*
X168353246Y-116787288D02*
X168360605Y-116794004D01*
X168382580Y-116797612D01*
X168425419Y-116799076D01*
X168495370Y-116799359D01*
X168502423Y-116799360D01*
X168574899Y-116799170D01*
X168620002Y-116797874D01*
X168644223Y-116794381D01*
X168654054Y-116787602D01*
X168655990Y-116776444D01*
X168656000Y-116773564D01*
X168656000Y-116747768D01*
X168507834Y-116750704D01*
X168436575Y-116752468D01*
X168392351Y-116755073D01*
X168368334Y-116759668D01*
X168357696Y-116767400D01*
X168354256Y-116776500D01*
X168353246Y-116787288D01*
X168353246Y-116787288D01*
M02*
