G04 #@! TF.FileFunction,Legend,Top*
%FSLAX46Y46*%
G04 Gerber Fmt 4.6, Leading zero omitted, Abs format (unit mm)*
G04 Created by KiCad (PCBNEW 0.201503020946+5465~21~ubuntu14.04.1-product) date Fri 20 Mar 2015 18:21:47 CET*
%MOMM*%
G01*
G04 APERTURE LIST*
%ADD10C,0.100000*%
%ADD11C,0.127000*%
%ADD12C,0.150000*%
G04 APERTURE END LIST*
D10*
D11*
X171631429Y-117184714D02*
X171631429Y-116422714D01*
X171631429Y-116785571D02*
X172066857Y-116785571D01*
X172066857Y-117184714D02*
X172066857Y-116422714D01*
X172429715Y-117184714D02*
X172429715Y-116676714D01*
X172429715Y-116422714D02*
X172393429Y-116459000D01*
X172429715Y-116495286D01*
X172466000Y-116459000D01*
X172429715Y-116422714D01*
X172429715Y-116495286D01*
X173119143Y-116676714D02*
X173119143Y-117293571D01*
X173082857Y-117366143D01*
X173046572Y-117402429D01*
X172974000Y-117438714D01*
X172865143Y-117438714D01*
X172792572Y-117402429D01*
X173119143Y-117148429D02*
X173046572Y-117184714D01*
X172901429Y-117184714D01*
X172828857Y-117148429D01*
X172792572Y-117112143D01*
X172756286Y-117039571D01*
X172756286Y-116821857D01*
X172792572Y-116749286D01*
X172828857Y-116713000D01*
X172901429Y-116676714D01*
X173046572Y-116676714D01*
X173119143Y-116713000D01*
X173482001Y-117184714D02*
X173482001Y-116422714D01*
X173808572Y-117184714D02*
X173808572Y-116785571D01*
X173772286Y-116713000D01*
X173699715Y-116676714D01*
X173590858Y-116676714D01*
X173518286Y-116713000D01*
X173482001Y-116749286D01*
X149098000Y-117438714D02*
X148735143Y-117438714D01*
X148735143Y-116676714D01*
X149460857Y-117438714D02*
X149388285Y-117402429D01*
X149352000Y-117366143D01*
X149315714Y-117293571D01*
X149315714Y-117075857D01*
X149352000Y-117003286D01*
X149388285Y-116967000D01*
X149460857Y-116930714D01*
X149569714Y-116930714D01*
X149642285Y-116967000D01*
X149678571Y-117003286D01*
X149714857Y-117075857D01*
X149714857Y-117293571D01*
X149678571Y-117366143D01*
X149642285Y-117402429D01*
X149569714Y-117438714D01*
X149460857Y-117438714D01*
X149968857Y-116930714D02*
X150114000Y-117438714D01*
X150259143Y-117075857D01*
X150404286Y-117438714D01*
X150549429Y-116930714D01*
D12*
X151130000Y-107950000D02*
X151130000Y-115570000D01*
X148590000Y-107950000D02*
X148590000Y-115570000D01*
X148310000Y-105130000D02*
X148310000Y-106680000D01*
X151130000Y-115570000D02*
X148590000Y-115570000D01*
X148590000Y-107950000D02*
X151130000Y-107950000D01*
X151410000Y-106680000D02*
X151410000Y-105130000D01*
X151410000Y-105130000D02*
X148310000Y-105130000D01*
X173990000Y-107950000D02*
X173990000Y-115570000D01*
X171450000Y-107950000D02*
X171450000Y-115570000D01*
X171170000Y-105130000D02*
X171170000Y-106680000D01*
X173990000Y-115570000D02*
X171450000Y-115570000D01*
X171450000Y-107950000D02*
X173990000Y-107950000D01*
X174270000Y-106680000D02*
X174270000Y-105130000D01*
X174270000Y-105130000D02*
X171170000Y-105130000D01*
X155032000Y-106793000D02*
X153832000Y-106793000D01*
X153832000Y-105043000D02*
X155032000Y-105043000D01*
X155540000Y-115937000D02*
X154340000Y-115937000D01*
X154340000Y-114187000D02*
X155540000Y-114187000D01*
X167040000Y-114187000D02*
X168240000Y-114187000D01*
X168240000Y-115937000D02*
X167040000Y-115937000D01*
X167040000Y-105297000D02*
X168240000Y-105297000D01*
X168240000Y-107047000D02*
X167040000Y-107047000D01*
X161827160Y-105775760D02*
X161778900Y-105775760D01*
X159028180Y-106476800D02*
X159028180Y-105775760D01*
X159028180Y-105775760D02*
X159277100Y-105775760D01*
X161827160Y-105775760D02*
X162027820Y-105775760D01*
X162027820Y-105775760D02*
X162027820Y-106476800D01*
X159482840Y-115204240D02*
X159531100Y-115204240D01*
X162281820Y-114503200D02*
X162281820Y-115204240D01*
X162281820Y-115204240D02*
X162032900Y-115204240D01*
X159482840Y-115204240D02*
X159282180Y-115204240D01*
X159282180Y-115204240D02*
X159282180Y-114503200D01*
D10*
G36*
X164886684Y-108053098D02*
X164978911Y-108054393D01*
X164980716Y-108054438D01*
X165203385Y-108060067D01*
X165227892Y-108107578D01*
X165249346Y-108171529D01*
X165251296Y-108238357D01*
X165233886Y-108302293D01*
X165222515Y-108324146D01*
X165204016Y-108357583D01*
X165200368Y-108373334D01*
X164826460Y-108373334D01*
X164756771Y-108378663D01*
X164703203Y-108395729D01*
X164662487Y-108426146D01*
X164632631Y-108469070D01*
X164608583Y-108538194D01*
X164601208Y-108615951D01*
X164609529Y-108694195D01*
X164632569Y-108764778D01*
X164669350Y-108819555D01*
X164675370Y-108825345D01*
X164708353Y-108843636D01*
X164754694Y-108854678D01*
X164808155Y-108858566D01*
X164862499Y-108855395D01*
X164911490Y-108845260D01*
X164948890Y-108828255D01*
X164957725Y-108821054D01*
X165000075Y-108764260D01*
X165027524Y-108694772D01*
X165039139Y-108618979D01*
X165033985Y-108543269D01*
X165011129Y-108474030D01*
X165009047Y-108469980D01*
X164976100Y-108422952D01*
X164933817Y-108392482D01*
X164878637Y-108376686D01*
X164826460Y-108373334D01*
X165200368Y-108373334D01*
X165198190Y-108382738D01*
X165202931Y-108414569D01*
X165207275Y-108432366D01*
X165214957Y-108480818D01*
X165220212Y-108548715D01*
X165221911Y-108614090D01*
X165220042Y-108692662D01*
X165212941Y-108755166D01*
X165198347Y-108819036D01*
X165192766Y-108839001D01*
X165149615Y-108957431D01*
X165094995Y-109050265D01*
X165028022Y-109118292D01*
X164947811Y-109162301D01*
X164853480Y-109183081D01*
X164805360Y-109185059D01*
X164723093Y-109176125D01*
X164652642Y-109148498D01*
X164587777Y-109099057D01*
X164547369Y-109055767D01*
X164489813Y-108969027D01*
X164448324Y-108866938D01*
X164422655Y-108754346D01*
X164412562Y-108636097D01*
X164417799Y-108517038D01*
X164438120Y-108402014D01*
X164473280Y-108295872D01*
X164523034Y-108203457D01*
X164587136Y-108129616D01*
X164594611Y-108123202D01*
X164626769Y-108099650D01*
X164661646Y-108081538D01*
X164702159Y-108068347D01*
X164751225Y-108059556D01*
X164811761Y-108054646D01*
X164886684Y-108053098D01*
X164886684Y-108053098D01*
X164886684Y-108053098D01*
G37*
X164886684Y-108053098D02*
X164978911Y-108054393D01*
X164980716Y-108054438D01*
X165203385Y-108060067D01*
X165227892Y-108107578D01*
X165249346Y-108171529D01*
X165251296Y-108238357D01*
X165233886Y-108302293D01*
X165222515Y-108324146D01*
X165204016Y-108357583D01*
X165200368Y-108373334D01*
X164826460Y-108373334D01*
X164756771Y-108378663D01*
X164703203Y-108395729D01*
X164662487Y-108426146D01*
X164632631Y-108469070D01*
X164608583Y-108538194D01*
X164601208Y-108615951D01*
X164609529Y-108694195D01*
X164632569Y-108764778D01*
X164669350Y-108819555D01*
X164675370Y-108825345D01*
X164708353Y-108843636D01*
X164754694Y-108854678D01*
X164808155Y-108858566D01*
X164862499Y-108855395D01*
X164911490Y-108845260D01*
X164948890Y-108828255D01*
X164957725Y-108821054D01*
X165000075Y-108764260D01*
X165027524Y-108694772D01*
X165039139Y-108618979D01*
X165033985Y-108543269D01*
X165011129Y-108474030D01*
X165009047Y-108469980D01*
X164976100Y-108422952D01*
X164933817Y-108392482D01*
X164878637Y-108376686D01*
X164826460Y-108373334D01*
X165200368Y-108373334D01*
X165198190Y-108382738D01*
X165202931Y-108414569D01*
X165207275Y-108432366D01*
X165214957Y-108480818D01*
X165220212Y-108548715D01*
X165221911Y-108614090D01*
X165220042Y-108692662D01*
X165212941Y-108755166D01*
X165198347Y-108819036D01*
X165192766Y-108839001D01*
X165149615Y-108957431D01*
X165094995Y-109050265D01*
X165028022Y-109118292D01*
X164947811Y-109162301D01*
X164853480Y-109183081D01*
X164805360Y-109185059D01*
X164723093Y-109176125D01*
X164652642Y-109148498D01*
X164587777Y-109099057D01*
X164547369Y-109055767D01*
X164489813Y-108969027D01*
X164448324Y-108866938D01*
X164422655Y-108754346D01*
X164412562Y-108636097D01*
X164417799Y-108517038D01*
X164438120Y-108402014D01*
X164473280Y-108295872D01*
X164523034Y-108203457D01*
X164587136Y-108129616D01*
X164594611Y-108123202D01*
X164626769Y-108099650D01*
X164661646Y-108081538D01*
X164702159Y-108068347D01*
X164751225Y-108059556D01*
X164811761Y-108054646D01*
X164886684Y-108053098D01*
X164886684Y-108053098D01*
G36*
X165131435Y-111336667D02*
X165162213Y-111350594D01*
X165193433Y-111385698D01*
X165217621Y-111431965D01*
X165226063Y-111463475D01*
X165229040Y-111498170D01*
X165225998Y-111531994D01*
X165215311Y-111568042D01*
X165195353Y-111609407D01*
X165164498Y-111659185D01*
X165121122Y-111720469D01*
X165063599Y-111796354D01*
X165025590Y-111845120D01*
X164973624Y-111912129D01*
X164927560Y-111972970D01*
X164889721Y-112024456D01*
X164862427Y-112063403D01*
X164848000Y-112086624D01*
X164846324Y-112091112D01*
X164852915Y-112112738D01*
X164869908Y-112146348D01*
X164879020Y-112161587D01*
X164893182Y-112183258D01*
X164906353Y-112198142D01*
X164922665Y-112207725D01*
X164946247Y-112213491D01*
X164981232Y-112216927D01*
X165031752Y-112219516D01*
X165041354Y-112219942D01*
X165095134Y-112222705D01*
X165132580Y-112226214D01*
X165157677Y-112231708D01*
X165174407Y-112240424D01*
X165186757Y-112253601D01*
X165196048Y-112268001D01*
X165218603Y-112323941D01*
X165228120Y-112388059D01*
X165222859Y-112445800D01*
X165208772Y-112482462D01*
X165191572Y-112513534D01*
X165186105Y-112520913D01*
X165179252Y-112527135D01*
X165169351Y-112532298D01*
X165154738Y-112536500D01*
X165133749Y-112539842D01*
X165104722Y-112542421D01*
X165065993Y-112544335D01*
X165015898Y-112545684D01*
X164952774Y-112546566D01*
X164874959Y-112547080D01*
X164780788Y-112547324D01*
X164668598Y-112547397D01*
X164620450Y-112547400D01*
X164071913Y-112547400D01*
X164047527Y-112496600D01*
X164028719Y-112435207D01*
X164024740Y-112368039D01*
X164034669Y-112304813D01*
X164057582Y-112255244D01*
X164071909Y-112239962D01*
X164086290Y-112235982D01*
X164118173Y-112231807D01*
X164164740Y-112227653D01*
X164223175Y-112223734D01*
X164290660Y-112220267D01*
X164364379Y-112217467D01*
X164367342Y-112217374D01*
X164645604Y-112208734D01*
X164493324Y-111927894D01*
X164448617Y-111844025D01*
X164408479Y-111766033D01*
X164375002Y-111698199D01*
X164350274Y-111644803D01*
X164336384Y-111610124D01*
X164334270Y-111602070D01*
X164334000Y-111548377D01*
X164344845Y-111489945D01*
X164363302Y-111441434D01*
X164377111Y-111422697D01*
X164402143Y-111409456D01*
X164430318Y-111404400D01*
X164445085Y-111407444D01*
X164461102Y-111418494D01*
X164480298Y-111440426D01*
X164504604Y-111476117D01*
X164535949Y-111528446D01*
X164576261Y-111600289D01*
X164627471Y-111694522D01*
X164637980Y-111714056D01*
X164708840Y-111845912D01*
X164810440Y-111713384D01*
X164887578Y-111613014D01*
X164950504Y-111531829D01*
X165000883Y-111467878D01*
X165040377Y-111419207D01*
X165070650Y-111383863D01*
X165093367Y-111359894D01*
X165110191Y-111345347D01*
X165122786Y-111338269D01*
X165131435Y-111336667D01*
X165131435Y-111336667D01*
X165131435Y-111336667D01*
G37*
X165131435Y-111336667D02*
X165162213Y-111350594D01*
X165193433Y-111385698D01*
X165217621Y-111431965D01*
X165226063Y-111463475D01*
X165229040Y-111498170D01*
X165225998Y-111531994D01*
X165215311Y-111568042D01*
X165195353Y-111609407D01*
X165164498Y-111659185D01*
X165121122Y-111720469D01*
X165063599Y-111796354D01*
X165025590Y-111845120D01*
X164973624Y-111912129D01*
X164927560Y-111972970D01*
X164889721Y-112024456D01*
X164862427Y-112063403D01*
X164848000Y-112086624D01*
X164846324Y-112091112D01*
X164852915Y-112112738D01*
X164869908Y-112146348D01*
X164879020Y-112161587D01*
X164893182Y-112183258D01*
X164906353Y-112198142D01*
X164922665Y-112207725D01*
X164946247Y-112213491D01*
X164981232Y-112216927D01*
X165031752Y-112219516D01*
X165041354Y-112219942D01*
X165095134Y-112222705D01*
X165132580Y-112226214D01*
X165157677Y-112231708D01*
X165174407Y-112240424D01*
X165186757Y-112253601D01*
X165196048Y-112268001D01*
X165218603Y-112323941D01*
X165228120Y-112388059D01*
X165222859Y-112445800D01*
X165208772Y-112482462D01*
X165191572Y-112513534D01*
X165186105Y-112520913D01*
X165179252Y-112527135D01*
X165169351Y-112532298D01*
X165154738Y-112536500D01*
X165133749Y-112539842D01*
X165104722Y-112542421D01*
X165065993Y-112544335D01*
X165015898Y-112545684D01*
X164952774Y-112546566D01*
X164874959Y-112547080D01*
X164780788Y-112547324D01*
X164668598Y-112547397D01*
X164620450Y-112547400D01*
X164071913Y-112547400D01*
X164047527Y-112496600D01*
X164028719Y-112435207D01*
X164024740Y-112368039D01*
X164034669Y-112304813D01*
X164057582Y-112255244D01*
X164071909Y-112239962D01*
X164086290Y-112235982D01*
X164118173Y-112231807D01*
X164164740Y-112227653D01*
X164223175Y-112223734D01*
X164290660Y-112220267D01*
X164364379Y-112217467D01*
X164367342Y-112217374D01*
X164645604Y-112208734D01*
X164493324Y-111927894D01*
X164448617Y-111844025D01*
X164408479Y-111766033D01*
X164375002Y-111698199D01*
X164350274Y-111644803D01*
X164336384Y-111610124D01*
X164334270Y-111602070D01*
X164334000Y-111548377D01*
X164344845Y-111489945D01*
X164363302Y-111441434D01*
X164377111Y-111422697D01*
X164402143Y-111409456D01*
X164430318Y-111404400D01*
X164445085Y-111407444D01*
X164461102Y-111418494D01*
X164480298Y-111440426D01*
X164504604Y-111476117D01*
X164535949Y-111528446D01*
X164576261Y-111600289D01*
X164627471Y-111694522D01*
X164637980Y-111714056D01*
X164708840Y-111845912D01*
X164810440Y-111713384D01*
X164887578Y-111613014D01*
X164950504Y-111531829D01*
X165000883Y-111467878D01*
X165040377Y-111419207D01*
X165070650Y-111383863D01*
X165093367Y-111359894D01*
X165110191Y-111345347D01*
X165122786Y-111338269D01*
X165131435Y-111336667D01*
X165131435Y-111336667D01*
G36*
X164632803Y-110796952D02*
X164706345Y-110797337D01*
X164797584Y-110798355D01*
X164817842Y-110798618D01*
X165170684Y-110803267D01*
X165196055Y-110845600D01*
X165218606Y-110901545D01*
X165228119Y-110965665D01*
X165222859Y-111023400D01*
X165208773Y-111060069D01*
X165191585Y-111091134D01*
X165184701Y-111100190D01*
X165175957Y-111107516D01*
X165163229Y-111113330D01*
X165144395Y-111117848D01*
X165117330Y-111121290D01*
X165079912Y-111123873D01*
X165030017Y-111125814D01*
X164965522Y-111127331D01*
X164884304Y-111128643D01*
X164817006Y-111129546D01*
X164722099Y-111130644D01*
X164645317Y-111131136D01*
X164584469Y-111130880D01*
X164537361Y-111129732D01*
X164501800Y-111127547D01*
X164475594Y-111124183D01*
X164456550Y-111119495D01*
X164442476Y-111113340D01*
X164431179Y-111105574D01*
X164429451Y-111104146D01*
X164394671Y-111059270D01*
X164376382Y-111002158D01*
X164374578Y-110940346D01*
X164389250Y-110881371D01*
X164420395Y-110832770D01*
X164429692Y-110824018D01*
X164440635Y-110815960D01*
X164453955Y-110809538D01*
X164471839Y-110804608D01*
X164496477Y-110801028D01*
X164530058Y-110798654D01*
X164574770Y-110797343D01*
X164632803Y-110796952D01*
X164632803Y-110796952D01*
X164632803Y-110796952D01*
G37*
X164632803Y-110796952D02*
X164706345Y-110797337D01*
X164797584Y-110798355D01*
X164817842Y-110798618D01*
X165170684Y-110803267D01*
X165196055Y-110845600D01*
X165218606Y-110901545D01*
X165228119Y-110965665D01*
X165222859Y-111023400D01*
X165208773Y-111060069D01*
X165191585Y-111091134D01*
X165184701Y-111100190D01*
X165175957Y-111107516D01*
X165163229Y-111113330D01*
X165144395Y-111117848D01*
X165117330Y-111121290D01*
X165079912Y-111123873D01*
X165030017Y-111125814D01*
X164965522Y-111127331D01*
X164884304Y-111128643D01*
X164817006Y-111129546D01*
X164722099Y-111130644D01*
X164645317Y-111131136D01*
X164584469Y-111130880D01*
X164537361Y-111129732D01*
X164501800Y-111127547D01*
X164475594Y-111124183D01*
X164456550Y-111119495D01*
X164442476Y-111113340D01*
X164431179Y-111105574D01*
X164429451Y-111104146D01*
X164394671Y-111059270D01*
X164376382Y-111002158D01*
X164374578Y-110940346D01*
X164389250Y-110881371D01*
X164420395Y-110832770D01*
X164429692Y-110824018D01*
X164440635Y-110815960D01*
X164453955Y-110809538D01*
X164471839Y-110804608D01*
X164496477Y-110801028D01*
X164530058Y-110798654D01*
X164574770Y-110797343D01*
X164632803Y-110796952D01*
X164632803Y-110796952D01*
G36*
X164510243Y-109462359D02*
X164547485Y-109478410D01*
X164577634Y-109516253D01*
X164597934Y-109572496D01*
X164600756Y-109640654D01*
X164586749Y-109711616D01*
X164568381Y-109801354D01*
X164564640Y-109897235D01*
X164575005Y-109989243D01*
X164598958Y-110067362D01*
X164605951Y-110081601D01*
X164639195Y-110129242D01*
X164681139Y-110161105D01*
X164735329Y-110179022D01*
X164805315Y-110184827D01*
X164805747Y-110184829D01*
X164878152Y-110178373D01*
X164934619Y-110157180D01*
X164977992Y-110119448D01*
X165011112Y-110063375D01*
X165016097Y-110051463D01*
X165033432Y-109982033D01*
X165039708Y-109896606D01*
X165034824Y-109807709D01*
X165018720Y-109728000D01*
X165002344Y-109660663D01*
X165000166Y-109604650D01*
X165011818Y-109547678D01*
X165013160Y-109543278D01*
X165038595Y-109494780D01*
X165074417Y-109467118D01*
X165112937Y-109466110D01*
X165114379Y-109466687D01*
X165144700Y-109495644D01*
X165172048Y-109552053D01*
X165195204Y-109629625D01*
X165212945Y-109722071D01*
X165224050Y-109823104D01*
X165227299Y-109926433D01*
X165222004Y-110020910D01*
X165198264Y-110149691D01*
X165157394Y-110264994D01*
X165101889Y-110362118D01*
X165034245Y-110436362D01*
X164982989Y-110471167D01*
X164880797Y-110509213D01*
X164778073Y-110517329D01*
X164678352Y-110495809D01*
X164585168Y-110444948D01*
X164574921Y-110437145D01*
X164506543Y-110365758D01*
X164451476Y-110272081D01*
X164410589Y-110160606D01*
X164384751Y-110035821D01*
X164374834Y-109902217D01*
X164381707Y-109764283D01*
X164406240Y-109626509D01*
X164412891Y-109601007D01*
X164441005Y-109524656D01*
X164474103Y-109478107D01*
X164510243Y-109462359D01*
X164510243Y-109462359D01*
X164510243Y-109462359D01*
G37*
X164510243Y-109462359D02*
X164547485Y-109478410D01*
X164577634Y-109516253D01*
X164597934Y-109572496D01*
X164600756Y-109640654D01*
X164586749Y-109711616D01*
X164568381Y-109801354D01*
X164564640Y-109897235D01*
X164575005Y-109989243D01*
X164598958Y-110067362D01*
X164605951Y-110081601D01*
X164639195Y-110129242D01*
X164681139Y-110161105D01*
X164735329Y-110179022D01*
X164805315Y-110184827D01*
X164805747Y-110184829D01*
X164878152Y-110178373D01*
X164934619Y-110157180D01*
X164977992Y-110119448D01*
X165011112Y-110063375D01*
X165016097Y-110051463D01*
X165033432Y-109982033D01*
X165039708Y-109896606D01*
X165034824Y-109807709D01*
X165018720Y-109728000D01*
X165002344Y-109660663D01*
X165000166Y-109604650D01*
X165011818Y-109547678D01*
X165013160Y-109543278D01*
X165038595Y-109494780D01*
X165074417Y-109467118D01*
X165112937Y-109466110D01*
X165114379Y-109466687D01*
X165144700Y-109495644D01*
X165172048Y-109552053D01*
X165195204Y-109629625D01*
X165212945Y-109722071D01*
X165224050Y-109823104D01*
X165227299Y-109926433D01*
X165222004Y-110020910D01*
X165198264Y-110149691D01*
X165157394Y-110264994D01*
X165101889Y-110362118D01*
X165034245Y-110436362D01*
X164982989Y-110471167D01*
X164880797Y-110509213D01*
X164778073Y-110517329D01*
X164678352Y-110495809D01*
X164585168Y-110444948D01*
X164574921Y-110437145D01*
X164506543Y-110365758D01*
X164451476Y-110272081D01*
X164410589Y-110160606D01*
X164384751Y-110035821D01*
X164374834Y-109902217D01*
X164381707Y-109764283D01*
X164406240Y-109626509D01*
X164412891Y-109601007D01*
X164441005Y-109524656D01*
X164474103Y-109478107D01*
X164510243Y-109462359D01*
X164510243Y-109462359D01*
G36*
X164662554Y-106581122D02*
X164736783Y-106581541D01*
X164800410Y-106582500D01*
X164851150Y-106583962D01*
X164886715Y-106585888D01*
X164904820Y-106588242D01*
X164906349Y-106588892D01*
X164930131Y-106597557D01*
X164938542Y-106597278D01*
X164959465Y-106601846D01*
X164992015Y-106617998D01*
X165029813Y-106641635D01*
X165066476Y-106668660D01*
X165095622Y-106694972D01*
X165102141Y-106702352D01*
X165119030Y-106729521D01*
X165123913Y-106751218D01*
X165123431Y-106753043D01*
X165123866Y-106761829D01*
X165128278Y-106758468D01*
X165141254Y-106762859D01*
X165158243Y-106792102D01*
X165176769Y-106838957D01*
X165194355Y-106896182D01*
X165195282Y-106900134D01*
X164787863Y-106900134D01*
X164650927Y-106900134D01*
X164617294Y-106956190D01*
X164584110Y-107032074D01*
X164567174Y-107117420D01*
X164566852Y-107204706D01*
X164583510Y-107286407D01*
X164599372Y-107324919D01*
X164641221Y-107384980D01*
X164695862Y-107423234D01*
X164764902Y-107440647D01*
X164794526Y-107442001D01*
X164856454Y-107437414D01*
X164905822Y-107421579D01*
X164949793Y-107391383D01*
X164979875Y-107361490D01*
X165016551Y-107302553D01*
X165038918Y-107226760D01*
X165046024Y-107142769D01*
X165036919Y-107059243D01*
X165019225Y-107002918D01*
X164999638Y-106964887D01*
X164975985Y-106937204D01*
X164944917Y-106918379D01*
X164903084Y-106906925D01*
X164847137Y-106901355D01*
X164787863Y-106900134D01*
X165195282Y-106900134D01*
X165208525Y-106956537D01*
X165216803Y-107012782D01*
X165217266Y-107018667D01*
X165220247Y-107053433D01*
X165224320Y-107094867D01*
X165226001Y-107141163D01*
X165224452Y-107203089D01*
X165222207Y-107238800D01*
X165208335Y-107333867D01*
X165183370Y-107432676D01*
X165151083Y-107522870D01*
X165115247Y-107592088D01*
X165113699Y-107594383D01*
X165083774Y-107631452D01*
X165044248Y-107671785D01*
X165008868Y-107702416D01*
X164980976Y-107723375D01*
X164957333Y-107737749D01*
X164933060Y-107746782D01*
X164903279Y-107751716D01*
X164863111Y-107753795D01*
X164807675Y-107754261D01*
X164805360Y-107754264D01*
X164746694Y-107753607D01*
X164703453Y-107750864D01*
X164670753Y-107745074D01*
X164643709Y-107735274D01*
X164617437Y-107720501D01*
X164610271Y-107715820D01*
X164540234Y-107652821D01*
X164481039Y-107567027D01*
X164434415Y-107463659D01*
X164402091Y-107347936D01*
X164385799Y-107225079D01*
X164387268Y-107100310D01*
X164392211Y-107057753D01*
X164401203Y-106999295D01*
X164409531Y-106951111D01*
X164413958Y-106929767D01*
X164415453Y-106918538D01*
X164411482Y-106910560D01*
X164399256Y-106905283D01*
X164375986Y-106902156D01*
X164338881Y-106900629D01*
X164285153Y-106900154D01*
X164263666Y-106900134D01*
X164203738Y-106899942D01*
X164160545Y-106898812D01*
X164130502Y-106895914D01*
X164110024Y-106890414D01*
X164095527Y-106881483D01*
X164083425Y-106868289D01*
X164074619Y-106856295D01*
X164049554Y-106801507D01*
X164042235Y-106737263D01*
X164052897Y-106671287D01*
X164067871Y-106634378D01*
X164092383Y-106586867D01*
X164491441Y-106582056D01*
X164580011Y-106581281D01*
X164662554Y-106581122D01*
X164662554Y-106581122D01*
X164662554Y-106581122D01*
G37*
X164662554Y-106581122D02*
X164736783Y-106581541D01*
X164800410Y-106582500D01*
X164851150Y-106583962D01*
X164886715Y-106585888D01*
X164904820Y-106588242D01*
X164906349Y-106588892D01*
X164930131Y-106597557D01*
X164938542Y-106597278D01*
X164959465Y-106601846D01*
X164992015Y-106617998D01*
X165029813Y-106641635D01*
X165066476Y-106668660D01*
X165095622Y-106694972D01*
X165102141Y-106702352D01*
X165119030Y-106729521D01*
X165123913Y-106751218D01*
X165123431Y-106753043D01*
X165123866Y-106761829D01*
X165128278Y-106758468D01*
X165141254Y-106762859D01*
X165158243Y-106792102D01*
X165176769Y-106838957D01*
X165194355Y-106896182D01*
X165195282Y-106900134D01*
X164787863Y-106900134D01*
X164650927Y-106900134D01*
X164617294Y-106956190D01*
X164584110Y-107032074D01*
X164567174Y-107117420D01*
X164566852Y-107204706D01*
X164583510Y-107286407D01*
X164599372Y-107324919D01*
X164641221Y-107384980D01*
X164695862Y-107423234D01*
X164764902Y-107440647D01*
X164794526Y-107442001D01*
X164856454Y-107437414D01*
X164905822Y-107421579D01*
X164949793Y-107391383D01*
X164979875Y-107361490D01*
X165016551Y-107302553D01*
X165038918Y-107226760D01*
X165046024Y-107142769D01*
X165036919Y-107059243D01*
X165019225Y-107002918D01*
X164999638Y-106964887D01*
X164975985Y-106937204D01*
X164944917Y-106918379D01*
X164903084Y-106906925D01*
X164847137Y-106901355D01*
X164787863Y-106900134D01*
X165195282Y-106900134D01*
X165208525Y-106956537D01*
X165216803Y-107012782D01*
X165217266Y-107018667D01*
X165220247Y-107053433D01*
X165224320Y-107094867D01*
X165226001Y-107141163D01*
X165224452Y-107203089D01*
X165222207Y-107238800D01*
X165208335Y-107333867D01*
X165183370Y-107432676D01*
X165151083Y-107522870D01*
X165115247Y-107592088D01*
X165113699Y-107594383D01*
X165083774Y-107631452D01*
X165044248Y-107671785D01*
X165008868Y-107702416D01*
X164980976Y-107723375D01*
X164957333Y-107737749D01*
X164933060Y-107746782D01*
X164903279Y-107751716D01*
X164863111Y-107753795D01*
X164807675Y-107754261D01*
X164805360Y-107754264D01*
X164746694Y-107753607D01*
X164703453Y-107750864D01*
X164670753Y-107745074D01*
X164643709Y-107735274D01*
X164617437Y-107720501D01*
X164610271Y-107715820D01*
X164540234Y-107652821D01*
X164481039Y-107567027D01*
X164434415Y-107463659D01*
X164402091Y-107347936D01*
X164385799Y-107225079D01*
X164387268Y-107100310D01*
X164392211Y-107057753D01*
X164401203Y-106999295D01*
X164409531Y-106951111D01*
X164413958Y-106929767D01*
X164415453Y-106918538D01*
X164411482Y-106910560D01*
X164399256Y-106905283D01*
X164375986Y-106902156D01*
X164338881Y-106900629D01*
X164285153Y-106900154D01*
X164263666Y-106900134D01*
X164203738Y-106899942D01*
X164160545Y-106898812D01*
X164130502Y-106895914D01*
X164110024Y-106890414D01*
X164095527Y-106881483D01*
X164083425Y-106868289D01*
X164074619Y-106856295D01*
X164049554Y-106801507D01*
X164042235Y-106737263D01*
X164052897Y-106671287D01*
X164067871Y-106634378D01*
X164092383Y-106586867D01*
X164491441Y-106582056D01*
X164580011Y-106581281D01*
X164662554Y-106581122D01*
X164662554Y-106581122D01*
G36*
X165152831Y-112911467D02*
X165187375Y-112969040D01*
X165221920Y-113026614D01*
X165221880Y-113097734D01*
X165110160Y-113097734D01*
X164618495Y-113097734D01*
X164126830Y-113097734D01*
X163918903Y-113449100D01*
X163860688Y-113547642D01*
X163802586Y-113646296D01*
X163747441Y-113740209D01*
X163698098Y-113824532D01*
X163657401Y-113894410D01*
X163628535Y-113944401D01*
X163546094Y-114088334D01*
X163545807Y-114685234D01*
X163545520Y-115282134D01*
X164327840Y-115282134D01*
X165110160Y-115282134D01*
X165110160Y-114189934D01*
X165110160Y-113097734D01*
X165221880Y-113097734D01*
X165221275Y-114175540D01*
X165221046Y-114370507D01*
X165220597Y-114556042D01*
X165219948Y-114729283D01*
X165219121Y-114887369D01*
X165218139Y-115027439D01*
X165217022Y-115146631D01*
X165215793Y-115242083D01*
X165214473Y-115310935D01*
X165213085Y-115350325D01*
X165212315Y-115358334D01*
X165198539Y-115394943D01*
X165181412Y-115426067D01*
X165176916Y-115432205D01*
X165171266Y-115437553D01*
X165163118Y-115442165D01*
X165151125Y-115446095D01*
X165133940Y-115449399D01*
X165110217Y-115452131D01*
X165078610Y-115454344D01*
X165037772Y-115456094D01*
X164986358Y-115457435D01*
X164923021Y-115458421D01*
X164846414Y-115459106D01*
X164755191Y-115459546D01*
X164648007Y-115459794D01*
X164523514Y-115459905D01*
X164380367Y-115459933D01*
X164343551Y-115459934D01*
X164189931Y-115459836D01*
X164055449Y-115459522D01*
X163938924Y-115458961D01*
X163839173Y-115458121D01*
X163755015Y-115456971D01*
X163685269Y-115455479D01*
X163628753Y-115453616D01*
X163584285Y-115451349D01*
X163550684Y-115448648D01*
X163526768Y-115445480D01*
X163511355Y-115441815D01*
X163503398Y-115437744D01*
X163489366Y-115424560D01*
X163477975Y-115410258D01*
X163468927Y-115391365D01*
X163461925Y-115364407D01*
X163456671Y-115325911D01*
X163452867Y-115272403D01*
X163450214Y-115200409D01*
X163448416Y-115106455D01*
X163447175Y-114987070D01*
X163446192Y-114838777D01*
X163445777Y-114765667D01*
X163445190Y-114625205D01*
X163445008Y-114492062D01*
X163445209Y-114370924D01*
X163445772Y-114266478D01*
X163446676Y-114183410D01*
X163447896Y-114126409D01*
X163448871Y-114105267D01*
X163450640Y-114081349D01*
X163452944Y-114060623D01*
X163457211Y-114040156D01*
X163464867Y-114017014D01*
X163477339Y-113988261D01*
X163496055Y-113950965D01*
X163522441Y-113902190D01*
X163557924Y-113839002D01*
X163603930Y-113758467D01*
X163661888Y-113657652D01*
X163691958Y-113605390D01*
X163735170Y-113530278D01*
X163787287Y-113439693D01*
X163843146Y-113342606D01*
X163897589Y-113247986D01*
X163925781Y-113198990D01*
X163969112Y-113124523D01*
X164009343Y-113056930D01*
X164043716Y-113000730D01*
X164069468Y-112960440D01*
X164083261Y-112941212D01*
X164090384Y-112934593D01*
X164100176Y-112929036D01*
X164114346Y-112924450D01*
X164134602Y-112920741D01*
X164162653Y-112917818D01*
X164200208Y-112915588D01*
X164248976Y-112913958D01*
X164310665Y-112912836D01*
X164386984Y-112912130D01*
X164479642Y-112911746D01*
X164590348Y-112911594D01*
X164631115Y-112911579D01*
X165152831Y-112911467D01*
X165152831Y-112911467D01*
X165152831Y-112911467D01*
G37*
X165152831Y-112911467D02*
X165187375Y-112969040D01*
X165221920Y-113026614D01*
X165221880Y-113097734D01*
X165110160Y-113097734D01*
X164618495Y-113097734D01*
X164126830Y-113097734D01*
X163918903Y-113449100D01*
X163860688Y-113547642D01*
X163802586Y-113646296D01*
X163747441Y-113740209D01*
X163698098Y-113824532D01*
X163657401Y-113894410D01*
X163628535Y-113944401D01*
X163546094Y-114088334D01*
X163545807Y-114685234D01*
X163545520Y-115282134D01*
X164327840Y-115282134D01*
X165110160Y-115282134D01*
X165110160Y-114189934D01*
X165110160Y-113097734D01*
X165221880Y-113097734D01*
X165221275Y-114175540D01*
X165221046Y-114370507D01*
X165220597Y-114556042D01*
X165219948Y-114729283D01*
X165219121Y-114887369D01*
X165218139Y-115027439D01*
X165217022Y-115146631D01*
X165215793Y-115242083D01*
X165214473Y-115310935D01*
X165213085Y-115350325D01*
X165212315Y-115358334D01*
X165198539Y-115394943D01*
X165181412Y-115426067D01*
X165176916Y-115432205D01*
X165171266Y-115437553D01*
X165163118Y-115442165D01*
X165151125Y-115446095D01*
X165133940Y-115449399D01*
X165110217Y-115452131D01*
X165078610Y-115454344D01*
X165037772Y-115456094D01*
X164986358Y-115457435D01*
X164923021Y-115458421D01*
X164846414Y-115459106D01*
X164755191Y-115459546D01*
X164648007Y-115459794D01*
X164523514Y-115459905D01*
X164380367Y-115459933D01*
X164343551Y-115459934D01*
X164189931Y-115459836D01*
X164055449Y-115459522D01*
X163938924Y-115458961D01*
X163839173Y-115458121D01*
X163755015Y-115456971D01*
X163685269Y-115455479D01*
X163628753Y-115453616D01*
X163584285Y-115451349D01*
X163550684Y-115448648D01*
X163526768Y-115445480D01*
X163511355Y-115441815D01*
X163503398Y-115437744D01*
X163489366Y-115424560D01*
X163477975Y-115410258D01*
X163468927Y-115391365D01*
X163461925Y-115364407D01*
X163456671Y-115325911D01*
X163452867Y-115272403D01*
X163450214Y-115200409D01*
X163448416Y-115106455D01*
X163447175Y-114987070D01*
X163446192Y-114838777D01*
X163445777Y-114765667D01*
X163445190Y-114625205D01*
X163445008Y-114492062D01*
X163445209Y-114370924D01*
X163445772Y-114266478D01*
X163446676Y-114183410D01*
X163447896Y-114126409D01*
X163448871Y-114105267D01*
X163450640Y-114081349D01*
X163452944Y-114060623D01*
X163457211Y-114040156D01*
X163464867Y-114017014D01*
X163477339Y-113988261D01*
X163496055Y-113950965D01*
X163522441Y-113902190D01*
X163557924Y-113839002D01*
X163603930Y-113758467D01*
X163661888Y-113657652D01*
X163691958Y-113605390D01*
X163735170Y-113530278D01*
X163787287Y-113439693D01*
X163843146Y-113342606D01*
X163897589Y-113247986D01*
X163925781Y-113198990D01*
X163969112Y-113124523D01*
X164009343Y-113056930D01*
X164043716Y-113000730D01*
X164069468Y-112960440D01*
X164083261Y-112941212D01*
X164090384Y-112934593D01*
X164100176Y-112929036D01*
X164114346Y-112924450D01*
X164134602Y-112920741D01*
X164162653Y-112917818D01*
X164200208Y-112915588D01*
X164248976Y-112913958D01*
X164310665Y-112912836D01*
X164386984Y-112912130D01*
X164479642Y-112911746D01*
X164590348Y-112911594D01*
X164631115Y-112911579D01*
X165152831Y-112911467D01*
X165152831Y-112911467D01*
G36*
X164103620Y-110806040D02*
X164144918Y-110806078D01*
X164183184Y-110829822D01*
X164210329Y-110871672D01*
X164224258Y-110934887D01*
X164223168Y-111004948D01*
X164207422Y-111066987D01*
X164205479Y-111071287D01*
X164174542Y-111113462D01*
X164137922Y-111129148D01*
X164100108Y-111121179D01*
X164065589Y-111092386D01*
X164038852Y-111045602D01*
X164024386Y-110983658D01*
X164023040Y-110956170D01*
X164031583Y-110907494D01*
X164053191Y-110858502D01*
X164081827Y-110820438D01*
X164103620Y-110806040D01*
X164103620Y-110806040D01*
X164103620Y-110806040D01*
G37*
X164103620Y-110806040D02*
X164144918Y-110806078D01*
X164183184Y-110829822D01*
X164210329Y-110871672D01*
X164224258Y-110934887D01*
X164223168Y-111004948D01*
X164207422Y-111066987D01*
X164205479Y-111071287D01*
X164174542Y-111113462D01*
X164137922Y-111129148D01*
X164100108Y-111121179D01*
X164065589Y-111092386D01*
X164038852Y-111045602D01*
X164024386Y-110983658D01*
X164023040Y-110956170D01*
X164031583Y-110907494D01*
X164053191Y-110858502D01*
X164081827Y-110820438D01*
X164103620Y-110806040D01*
X164103620Y-110806040D01*
G36*
X163668656Y-112911467D02*
X163735445Y-112911914D01*
X163784801Y-112913514D01*
X163819605Y-112916658D01*
X163842738Y-112921738D01*
X163857083Y-112929144D01*
X163864834Y-112938077D01*
X163876061Y-112960373D01*
X163881521Y-112983621D01*
X163880020Y-113010925D01*
X163870365Y-113045392D01*
X163851363Y-113090126D01*
X163821821Y-113148233D01*
X163780547Y-113222817D01*
X163726346Y-113316986D01*
X163705540Y-113352682D01*
X163650850Y-113446048D01*
X163608237Y-113517767D01*
X163575714Y-113570641D01*
X163551298Y-113607474D01*
X163533004Y-113631069D01*
X163518848Y-113644229D01*
X163506844Y-113649756D01*
X163495009Y-113650453D01*
X163494720Y-113650435D01*
X163459160Y-113648067D01*
X163456401Y-113300973D01*
X163455611Y-113182966D01*
X163455494Y-113094288D01*
X163456229Y-113030411D01*
X163457998Y-112986808D01*
X163460979Y-112958951D01*
X163465353Y-112942312D01*
X163471043Y-112932673D01*
X163485737Y-112924062D01*
X163514749Y-112917829D01*
X163559741Y-112913794D01*
X163622376Y-112911780D01*
X163668656Y-112911467D01*
X163668656Y-112911467D01*
X163668656Y-112911467D01*
G37*
X163668656Y-112911467D02*
X163735445Y-112911914D01*
X163784801Y-112913514D01*
X163819605Y-112916658D01*
X163842738Y-112921738D01*
X163857083Y-112929144D01*
X163864834Y-112938077D01*
X163876061Y-112960373D01*
X163881521Y-112983621D01*
X163880020Y-113010925D01*
X163870365Y-113045392D01*
X163851363Y-113090126D01*
X163821821Y-113148233D01*
X163780547Y-113222817D01*
X163726346Y-113316986D01*
X163705540Y-113352682D01*
X163650850Y-113446048D01*
X163608237Y-113517767D01*
X163575714Y-113570641D01*
X163551298Y-113607474D01*
X163533004Y-113631069D01*
X163518848Y-113644229D01*
X163506844Y-113649756D01*
X163495009Y-113650453D01*
X163494720Y-113650435D01*
X163459160Y-113648067D01*
X163456401Y-113300973D01*
X163455611Y-113182966D01*
X163455494Y-113094288D01*
X163456229Y-113030411D01*
X163457998Y-112986808D01*
X163460979Y-112958951D01*
X163465353Y-112942312D01*
X163471043Y-112932673D01*
X163485737Y-112924062D01*
X163514749Y-112917829D01*
X163559741Y-112913794D01*
X163622376Y-112911780D01*
X163668656Y-112911467D01*
X163668656Y-112911467D01*
G36*
X164703760Y-113216267D02*
X164710588Y-113217575D01*
X164715687Y-113224371D01*
X164719307Y-113240967D01*
X164721703Y-113271673D01*
X164723125Y-113320800D01*
X164723826Y-113392660D01*
X164724059Y-113491563D01*
X164724080Y-113563400D01*
X164724080Y-113910534D01*
X164846000Y-113910534D01*
X164897465Y-113910866D01*
X164931980Y-113912487D01*
X164952910Y-113916330D01*
X164963623Y-113923333D01*
X164967486Y-113934430D01*
X164967920Y-113944401D01*
X164966864Y-113957802D01*
X164961617Y-113967109D01*
X164949055Y-113973065D01*
X164926055Y-113976414D01*
X164889495Y-113977899D01*
X164836252Y-113978263D01*
X164825680Y-113978267D01*
X164683440Y-113978267D01*
X164683440Y-113597267D01*
X164683505Y-113474328D01*
X164683846Y-113381140D01*
X164684683Y-113313586D01*
X164686236Y-113267550D01*
X164688724Y-113238916D01*
X164692366Y-113223569D01*
X164697383Y-113217391D01*
X164703760Y-113216267D01*
X164703760Y-113216267D01*
X164703760Y-113216267D01*
G37*
X164703760Y-113216267D02*
X164710588Y-113217575D01*
X164715687Y-113224371D01*
X164719307Y-113240967D01*
X164721703Y-113271673D01*
X164723125Y-113320800D01*
X164723826Y-113392660D01*
X164724059Y-113491563D01*
X164724080Y-113563400D01*
X164724080Y-113910534D01*
X164846000Y-113910534D01*
X164897465Y-113910866D01*
X164931980Y-113912487D01*
X164952910Y-113916330D01*
X164963623Y-113923333D01*
X164967486Y-113934430D01*
X164967920Y-113944401D01*
X164966864Y-113957802D01*
X164961617Y-113967109D01*
X164949055Y-113973065D01*
X164926055Y-113976414D01*
X164889495Y-113977899D01*
X164836252Y-113978263D01*
X164825680Y-113978267D01*
X164683440Y-113978267D01*
X164683440Y-113597267D01*
X164683505Y-113474328D01*
X164683846Y-113381140D01*
X164684683Y-113313586D01*
X164686236Y-113267550D01*
X164688724Y-113238916D01*
X164692366Y-113223569D01*
X164697383Y-113217391D01*
X164703760Y-113216267D01*
X164703760Y-113216267D01*
G36*
X164343746Y-113199288D02*
X164396753Y-113288743D01*
X164423914Y-113335798D01*
X164439730Y-113370099D01*
X164440139Y-113371876D01*
X164347787Y-113371876D01*
X164331875Y-113377520D01*
X164330106Y-113379314D01*
X164322155Y-113392925D01*
X164316690Y-113418121D01*
X164313110Y-113461012D01*
X164310812Y-113527707D01*
X164309727Y-113586373D01*
X164306854Y-113775067D01*
X164342747Y-113775067D01*
X164378640Y-113775067D01*
X164378316Y-113601501D01*
X164377131Y-113510708D01*
X164373702Y-113448263D01*
X164367628Y-113408784D01*
X164362803Y-113394441D01*
X164347787Y-113371876D01*
X164440139Y-113371876D01*
X164447266Y-113402766D01*
X164449590Y-113444916D01*
X164449760Y-113480898D01*
X164448984Y-113547261D01*
X164446926Y-113631635D01*
X164443989Y-113718283D01*
X164443158Y-113738599D01*
X164436557Y-113893601D01*
X164407333Y-113893601D01*
X164378110Y-113893601D01*
X164380915Y-114151834D01*
X164383720Y-114410067D01*
X164416766Y-114410641D01*
X164437071Y-114415990D01*
X164458365Y-114434446D01*
X164485036Y-114470725D01*
X164510746Y-114511711D01*
X164571680Y-114612207D01*
X164632067Y-114512611D01*
X164661010Y-114466107D01*
X164684222Y-114435356D01*
X164707229Y-114416997D01*
X164735560Y-114407670D01*
X164774745Y-114404012D01*
X164812336Y-114403012D01*
X164885352Y-114401600D01*
X164888536Y-114346567D01*
X164894294Y-114306470D01*
X164906688Y-114293576D01*
X164909500Y-114293650D01*
X164934284Y-114296774D01*
X164942520Y-114297884D01*
X164949986Y-114305144D01*
X164954632Y-114328292D01*
X164957030Y-114373157D01*
X164957756Y-114445568D01*
X164957760Y-114452400D01*
X164957760Y-114604800D01*
X164922200Y-114604800D01*
X164898308Y-114601969D01*
X164888509Y-114587605D01*
X164886640Y-114554000D01*
X164886640Y-114503200D01*
X164807260Y-114503200D01*
X164766399Y-114504154D01*
X164740018Y-114508747D01*
X164722287Y-114519572D01*
X164707378Y-114539227D01*
X164700580Y-114550694D01*
X164680146Y-114589535D01*
X164675662Y-114611087D01*
X164687688Y-114620182D01*
X164708840Y-114621734D01*
X164732739Y-114624589D01*
X164742542Y-114638926D01*
X164744400Y-114671792D01*
X164744400Y-114721850D01*
X164670740Y-114726825D01*
X164597080Y-114731801D01*
X164594217Y-114930767D01*
X164591355Y-115129734D01*
X164561197Y-115129734D01*
X164531040Y-115129734D01*
X164531040Y-114926534D01*
X164531040Y-114723334D01*
X164459920Y-114723334D01*
X164388800Y-114723334D01*
X164388800Y-114672534D01*
X164390404Y-114639960D01*
X164399101Y-114625480D01*
X164420713Y-114621814D01*
X164429440Y-114621734D01*
X164458465Y-114618154D01*
X164468364Y-114605235D01*
X164460001Y-114579705D01*
X164446565Y-114556952D01*
X164433267Y-114539610D01*
X164417066Y-114528706D01*
X164393186Y-114522798D01*
X164356850Y-114520443D01*
X164324645Y-114520134D01*
X164226240Y-114520134D01*
X164226240Y-114570934D01*
X164226240Y-114621734D01*
X164064323Y-114621734D01*
X163902407Y-114621734D01*
X163899223Y-114566700D01*
X163896040Y-114511667D01*
X163766500Y-114506928D01*
X163636960Y-114502189D01*
X163636960Y-114451895D01*
X163636960Y-114401600D01*
X163769040Y-114401600D01*
X163901120Y-114401600D01*
X163901120Y-114350800D01*
X163901120Y-114300000D01*
X164063036Y-114300000D01*
X164224952Y-114300000D01*
X164228136Y-114355034D01*
X164231803Y-114389882D01*
X164238517Y-114401600D01*
X164165280Y-114401600D01*
X164063680Y-114401600D01*
X163962080Y-114401600D01*
X163962080Y-114452400D01*
X163962080Y-114503200D01*
X164063680Y-114503200D01*
X164165280Y-114503200D01*
X164165280Y-114452400D01*
X164165280Y-114401600D01*
X164238517Y-114401600D01*
X164241507Y-114406818D01*
X164263360Y-114413783D01*
X164274500Y-114415274D01*
X164317679Y-114420481D01*
X164317680Y-114157041D01*
X164317680Y-113893601D01*
X164277040Y-113893601D01*
X164236400Y-113893601D01*
X164236400Y-113634789D01*
X164236400Y-113375977D01*
X164290073Y-113287632D01*
X164343746Y-113199288D01*
X164343746Y-113199288D01*
X164343746Y-113199288D01*
G37*
X164343746Y-113199288D02*
X164396753Y-113288743D01*
X164423914Y-113335798D01*
X164439730Y-113370099D01*
X164440139Y-113371876D01*
X164347787Y-113371876D01*
X164331875Y-113377520D01*
X164330106Y-113379314D01*
X164322155Y-113392925D01*
X164316690Y-113418121D01*
X164313110Y-113461012D01*
X164310812Y-113527707D01*
X164309727Y-113586373D01*
X164306854Y-113775067D01*
X164342747Y-113775067D01*
X164378640Y-113775067D01*
X164378316Y-113601501D01*
X164377131Y-113510708D01*
X164373702Y-113448263D01*
X164367628Y-113408784D01*
X164362803Y-113394441D01*
X164347787Y-113371876D01*
X164440139Y-113371876D01*
X164447266Y-113402766D01*
X164449590Y-113444916D01*
X164449760Y-113480898D01*
X164448984Y-113547261D01*
X164446926Y-113631635D01*
X164443989Y-113718283D01*
X164443158Y-113738599D01*
X164436557Y-113893601D01*
X164407333Y-113893601D01*
X164378110Y-113893601D01*
X164380915Y-114151834D01*
X164383720Y-114410067D01*
X164416766Y-114410641D01*
X164437071Y-114415990D01*
X164458365Y-114434446D01*
X164485036Y-114470725D01*
X164510746Y-114511711D01*
X164571680Y-114612207D01*
X164632067Y-114512611D01*
X164661010Y-114466107D01*
X164684222Y-114435356D01*
X164707229Y-114416997D01*
X164735560Y-114407670D01*
X164774745Y-114404012D01*
X164812336Y-114403012D01*
X164885352Y-114401600D01*
X164888536Y-114346567D01*
X164894294Y-114306470D01*
X164906688Y-114293576D01*
X164909500Y-114293650D01*
X164934284Y-114296774D01*
X164942520Y-114297884D01*
X164949986Y-114305144D01*
X164954632Y-114328292D01*
X164957030Y-114373157D01*
X164957756Y-114445568D01*
X164957760Y-114452400D01*
X164957760Y-114604800D01*
X164922200Y-114604800D01*
X164898308Y-114601969D01*
X164888509Y-114587605D01*
X164886640Y-114554000D01*
X164886640Y-114503200D01*
X164807260Y-114503200D01*
X164766399Y-114504154D01*
X164740018Y-114508747D01*
X164722287Y-114519572D01*
X164707378Y-114539227D01*
X164700580Y-114550694D01*
X164680146Y-114589535D01*
X164675662Y-114611087D01*
X164687688Y-114620182D01*
X164708840Y-114621734D01*
X164732739Y-114624589D01*
X164742542Y-114638926D01*
X164744400Y-114671792D01*
X164744400Y-114721850D01*
X164670740Y-114726825D01*
X164597080Y-114731801D01*
X164594217Y-114930767D01*
X164591355Y-115129734D01*
X164561197Y-115129734D01*
X164531040Y-115129734D01*
X164531040Y-114926534D01*
X164531040Y-114723334D01*
X164459920Y-114723334D01*
X164388800Y-114723334D01*
X164388800Y-114672534D01*
X164390404Y-114639960D01*
X164399101Y-114625480D01*
X164420713Y-114621814D01*
X164429440Y-114621734D01*
X164458465Y-114618154D01*
X164468364Y-114605235D01*
X164460001Y-114579705D01*
X164446565Y-114556952D01*
X164433267Y-114539610D01*
X164417066Y-114528706D01*
X164393186Y-114522798D01*
X164356850Y-114520443D01*
X164324645Y-114520134D01*
X164226240Y-114520134D01*
X164226240Y-114570934D01*
X164226240Y-114621734D01*
X164064323Y-114621734D01*
X163902407Y-114621734D01*
X163899223Y-114566700D01*
X163896040Y-114511667D01*
X163766500Y-114506928D01*
X163636960Y-114502189D01*
X163636960Y-114451895D01*
X163636960Y-114401600D01*
X163769040Y-114401600D01*
X163901120Y-114401600D01*
X163901120Y-114350800D01*
X163901120Y-114300000D01*
X164063036Y-114300000D01*
X164224952Y-114300000D01*
X164228136Y-114355034D01*
X164231803Y-114389882D01*
X164238517Y-114401600D01*
X164165280Y-114401600D01*
X164063680Y-114401600D01*
X163962080Y-114401600D01*
X163962080Y-114452400D01*
X163962080Y-114503200D01*
X164063680Y-114503200D01*
X164165280Y-114503200D01*
X164165280Y-114452400D01*
X164165280Y-114401600D01*
X164238517Y-114401600D01*
X164241507Y-114406818D01*
X164263360Y-114413783D01*
X164274500Y-114415274D01*
X164317679Y-114420481D01*
X164317680Y-114157041D01*
X164317680Y-113893601D01*
X164277040Y-113893601D01*
X164236400Y-113893601D01*
X164236400Y-113634789D01*
X164236400Y-113375977D01*
X164290073Y-113287632D01*
X164343746Y-113199288D01*
X164343746Y-113199288D01*
G36*
X164957760Y-113233200D02*
X164957760Y-113334800D01*
X164957760Y-113436400D01*
X164922200Y-113436400D01*
X164886640Y-113436400D01*
X164886640Y-113334800D01*
X164886640Y-113233200D01*
X164922200Y-113233200D01*
X164957760Y-113233200D01*
X164957760Y-113233200D01*
X164957760Y-113233200D01*
G37*
X164957760Y-113233200D02*
X164957760Y-113334800D01*
X164957760Y-113436400D01*
X164922200Y-113436400D01*
X164886640Y-113436400D01*
X164886640Y-113334800D01*
X164886640Y-113233200D01*
X164922200Y-113233200D01*
X164957760Y-113233200D01*
X164957760Y-113233200D01*
G36*
X164922200Y-113656534D02*
X164935853Y-113658464D01*
X164943459Y-113669355D01*
X164946780Y-113696858D01*
X164947585Y-113748624D01*
X164947600Y-113766601D01*
X164947154Y-113825768D01*
X164944641Y-113858723D01*
X164938294Y-113873118D01*
X164926348Y-113876604D01*
X164922200Y-113876667D01*
X164908546Y-113874737D01*
X164900940Y-113863846D01*
X164897619Y-113836343D01*
X164896814Y-113784577D01*
X164896800Y-113766601D01*
X164897245Y-113707433D01*
X164899758Y-113674478D01*
X164906105Y-113660083D01*
X164918051Y-113656597D01*
X164922200Y-113656534D01*
X164922200Y-113656534D01*
X164922200Y-113656534D01*
G37*
X164922200Y-113656534D02*
X164935853Y-113658464D01*
X164943459Y-113669355D01*
X164946780Y-113696858D01*
X164947585Y-113748624D01*
X164947600Y-113766601D01*
X164947154Y-113825768D01*
X164944641Y-113858723D01*
X164938294Y-113873118D01*
X164926348Y-113876604D01*
X164922200Y-113876667D01*
X164908546Y-113874737D01*
X164900940Y-113863846D01*
X164897619Y-113836343D01*
X164896814Y-113784577D01*
X164896800Y-113766601D01*
X164897245Y-113707433D01*
X164899758Y-113674478D01*
X164906105Y-113660083D01*
X164918051Y-113656597D01*
X164922200Y-113656534D01*
X164922200Y-113656534D01*
G36*
X164779960Y-113656534D02*
X164794037Y-113658685D01*
X164801637Y-113670440D01*
X164804748Y-113699752D01*
X164805359Y-113754573D01*
X164805360Y-113758134D01*
X164804822Y-113814442D01*
X164801883Y-113844843D01*
X164794555Y-113857288D01*
X164780850Y-113859732D01*
X164779960Y-113859734D01*
X164765882Y-113857583D01*
X164758282Y-113845827D01*
X164755171Y-113816516D01*
X164754560Y-113761695D01*
X164754560Y-113758134D01*
X164755097Y-113701826D01*
X164758036Y-113671425D01*
X164765364Y-113658979D01*
X164779069Y-113656536D01*
X164779960Y-113656534D01*
X164779960Y-113656534D01*
X164779960Y-113656534D01*
G37*
X164779960Y-113656534D02*
X164794037Y-113658685D01*
X164801637Y-113670440D01*
X164804748Y-113699752D01*
X164805359Y-113754573D01*
X164805360Y-113758134D01*
X164804822Y-113814442D01*
X164801883Y-113844843D01*
X164794555Y-113857288D01*
X164780850Y-113859732D01*
X164779960Y-113859734D01*
X164765882Y-113857583D01*
X164758282Y-113845827D01*
X164755171Y-113816516D01*
X164754560Y-113761695D01*
X164754560Y-113758134D01*
X164755097Y-113701826D01*
X164758036Y-113671425D01*
X164765364Y-113658979D01*
X164779069Y-113656536D01*
X164779960Y-113656534D01*
X164779960Y-113656534D01*
G36*
X164793288Y-113235246D02*
X164800004Y-113242605D01*
X164803612Y-113264580D01*
X164805076Y-113307419D01*
X164805359Y-113377370D01*
X164805360Y-113384423D01*
X164805170Y-113456899D01*
X164803874Y-113502002D01*
X164800381Y-113526223D01*
X164793602Y-113536054D01*
X164782444Y-113537990D01*
X164779564Y-113538000D01*
X164753768Y-113538000D01*
X164756704Y-113389834D01*
X164758468Y-113318575D01*
X164761073Y-113274351D01*
X164765668Y-113250334D01*
X164773400Y-113239696D01*
X164782500Y-113236256D01*
X164793288Y-113235246D01*
X164793288Y-113235246D01*
X164793288Y-113235246D01*
G37*
X164793288Y-113235246D02*
X164800004Y-113242605D01*
X164803612Y-113264580D01*
X164805076Y-113307419D01*
X164805359Y-113377370D01*
X164805360Y-113384423D01*
X164805170Y-113456899D01*
X164803874Y-113502002D01*
X164800381Y-113526223D01*
X164793602Y-113536054D01*
X164782444Y-113537990D01*
X164779564Y-113538000D01*
X164753768Y-113538000D01*
X164756704Y-113389834D01*
X164758468Y-113318575D01*
X164761073Y-113274351D01*
X164765668Y-113250334D01*
X164773400Y-113239696D01*
X164782500Y-113236256D01*
X164793288Y-113235246D01*
X164793288Y-113235246D01*
D12*
X148169524Y-104592381D02*
X148169524Y-103592381D01*
X148550477Y-103592381D01*
X148645715Y-103640000D01*
X148693334Y-103687619D01*
X148740953Y-103782857D01*
X148740953Y-103925714D01*
X148693334Y-104020952D01*
X148645715Y-104068571D01*
X148550477Y-104116190D01*
X148169524Y-104116190D01*
X149693334Y-104592381D02*
X149121905Y-104592381D01*
X149407619Y-104592381D02*
X149407619Y-103592381D01*
X149312381Y-103735238D01*
X149217143Y-103830476D01*
X149121905Y-103878095D01*
X150312381Y-103592381D02*
X150407620Y-103592381D01*
X150502858Y-103640000D01*
X150550477Y-103687619D01*
X150598096Y-103782857D01*
X150645715Y-103973333D01*
X150645715Y-104211429D01*
X150598096Y-104401905D01*
X150550477Y-104497143D01*
X150502858Y-104544762D01*
X150407620Y-104592381D01*
X150312381Y-104592381D01*
X150217143Y-104544762D01*
X150169524Y-104497143D01*
X150121905Y-104401905D01*
X150074286Y-104211429D01*
X150074286Y-103973333D01*
X150121905Y-103782857D01*
X150169524Y-103687619D01*
X150217143Y-103640000D01*
X150312381Y-103592381D01*
X151598096Y-104592381D02*
X151026667Y-104592381D01*
X151312381Y-104592381D02*
X151312381Y-103592381D01*
X151217143Y-103735238D01*
X151121905Y-103830476D01*
X151026667Y-103878095D01*
X171029524Y-104592381D02*
X171029524Y-103592381D01*
X171410477Y-103592381D01*
X171505715Y-103640000D01*
X171553334Y-103687619D01*
X171600953Y-103782857D01*
X171600953Y-103925714D01*
X171553334Y-104020952D01*
X171505715Y-104068571D01*
X171410477Y-104116190D01*
X171029524Y-104116190D01*
X172553334Y-104592381D02*
X171981905Y-104592381D01*
X172267619Y-104592381D02*
X172267619Y-103592381D01*
X172172381Y-103735238D01*
X172077143Y-103830476D01*
X171981905Y-103878095D01*
X173172381Y-103592381D02*
X173267620Y-103592381D01*
X173362858Y-103640000D01*
X173410477Y-103687619D01*
X173458096Y-103782857D01*
X173505715Y-103973333D01*
X173505715Y-104211429D01*
X173458096Y-104401905D01*
X173410477Y-104497143D01*
X173362858Y-104544762D01*
X173267620Y-104592381D01*
X173172381Y-104592381D01*
X173077143Y-104544762D01*
X173029524Y-104497143D01*
X172981905Y-104401905D01*
X172934286Y-104211429D01*
X172934286Y-103973333D01*
X172981905Y-103782857D01*
X173029524Y-103687619D01*
X173077143Y-103640000D01*
X173172381Y-103592381D01*
X173886667Y-103687619D02*
X173934286Y-103640000D01*
X174029524Y-103592381D01*
X174267620Y-103592381D01*
X174362858Y-103640000D01*
X174410477Y-103687619D01*
X174458096Y-103782857D01*
X174458096Y-103878095D01*
X174410477Y-104020952D01*
X173839048Y-104592381D01*
X174458096Y-104592381D01*
X153566953Y-108402381D02*
X153233619Y-107926190D01*
X152995524Y-108402381D02*
X152995524Y-107402381D01*
X153376477Y-107402381D01*
X153471715Y-107450000D01*
X153519334Y-107497619D01*
X153566953Y-107592857D01*
X153566953Y-107735714D01*
X153519334Y-107830952D01*
X153471715Y-107878571D01*
X153376477Y-107926190D01*
X152995524Y-107926190D01*
X154519334Y-108402381D02*
X153947905Y-108402381D01*
X154233619Y-108402381D02*
X154233619Y-107402381D01*
X154138381Y-107545238D01*
X154043143Y-107640476D01*
X153947905Y-107688095D01*
X155138381Y-107402381D02*
X155233620Y-107402381D01*
X155328858Y-107450000D01*
X155376477Y-107497619D01*
X155424096Y-107592857D01*
X155471715Y-107783333D01*
X155471715Y-108021429D01*
X155424096Y-108211905D01*
X155376477Y-108307143D01*
X155328858Y-108354762D01*
X155233620Y-108402381D01*
X155138381Y-108402381D01*
X155043143Y-108354762D01*
X154995524Y-108307143D01*
X154947905Y-108211905D01*
X154900286Y-108021429D01*
X154900286Y-107783333D01*
X154947905Y-107592857D01*
X154995524Y-107497619D01*
X155043143Y-107450000D01*
X155138381Y-107402381D01*
X156424096Y-108402381D02*
X155852667Y-108402381D01*
X156138381Y-108402381D02*
X156138381Y-107402381D01*
X156043143Y-107545238D01*
X155947905Y-107640476D01*
X155852667Y-107688095D01*
X153820953Y-113414381D02*
X153487619Y-112938190D01*
X153249524Y-113414381D02*
X153249524Y-112414381D01*
X153630477Y-112414381D01*
X153725715Y-112462000D01*
X153773334Y-112509619D01*
X153820953Y-112604857D01*
X153820953Y-112747714D01*
X153773334Y-112842952D01*
X153725715Y-112890571D01*
X153630477Y-112938190D01*
X153249524Y-112938190D01*
X154773334Y-113414381D02*
X154201905Y-113414381D01*
X154487619Y-113414381D02*
X154487619Y-112414381D01*
X154392381Y-112557238D01*
X154297143Y-112652476D01*
X154201905Y-112700095D01*
X155392381Y-112414381D02*
X155487620Y-112414381D01*
X155582858Y-112462000D01*
X155630477Y-112509619D01*
X155678096Y-112604857D01*
X155725715Y-112795333D01*
X155725715Y-113033429D01*
X155678096Y-113223905D01*
X155630477Y-113319143D01*
X155582858Y-113366762D01*
X155487620Y-113414381D01*
X155392381Y-113414381D01*
X155297143Y-113366762D01*
X155249524Y-113319143D01*
X155201905Y-113223905D01*
X155154286Y-113033429D01*
X155154286Y-112795333D01*
X155201905Y-112604857D01*
X155249524Y-112509619D01*
X155297143Y-112462000D01*
X155392381Y-112414381D01*
X156106667Y-112509619D02*
X156154286Y-112462000D01*
X156249524Y-112414381D01*
X156487620Y-112414381D01*
X156582858Y-112462000D01*
X156630477Y-112509619D01*
X156678096Y-112604857D01*
X156678096Y-112700095D01*
X156630477Y-112842952D01*
X156059048Y-113414381D01*
X156678096Y-113414381D01*
X166520953Y-113609381D02*
X166187619Y-113133190D01*
X165949524Y-113609381D02*
X165949524Y-112609381D01*
X166330477Y-112609381D01*
X166425715Y-112657000D01*
X166473334Y-112704619D01*
X166520953Y-112799857D01*
X166520953Y-112942714D01*
X166473334Y-113037952D01*
X166425715Y-113085571D01*
X166330477Y-113133190D01*
X165949524Y-113133190D01*
X167473334Y-113609381D02*
X166901905Y-113609381D01*
X167187619Y-113609381D02*
X167187619Y-112609381D01*
X167092381Y-112752238D01*
X166997143Y-112847476D01*
X166901905Y-112895095D01*
X168092381Y-112609381D02*
X168187620Y-112609381D01*
X168282858Y-112657000D01*
X168330477Y-112704619D01*
X168378096Y-112799857D01*
X168425715Y-112990333D01*
X168425715Y-113228429D01*
X168378096Y-113418905D01*
X168330477Y-113514143D01*
X168282858Y-113561762D01*
X168187620Y-113609381D01*
X168092381Y-113609381D01*
X167997143Y-113561762D01*
X167949524Y-113514143D01*
X167901905Y-113418905D01*
X167854286Y-113228429D01*
X167854286Y-112990333D01*
X167901905Y-112799857D01*
X167949524Y-112704619D01*
X167997143Y-112657000D01*
X168092381Y-112609381D01*
X168759048Y-112609381D02*
X169378096Y-112609381D01*
X169044762Y-112990333D01*
X169187620Y-112990333D01*
X169282858Y-113037952D01*
X169330477Y-113085571D01*
X169378096Y-113180810D01*
X169378096Y-113418905D01*
X169330477Y-113514143D01*
X169282858Y-113561762D01*
X169187620Y-113609381D01*
X168901905Y-113609381D01*
X168806667Y-113561762D01*
X168759048Y-113514143D01*
X166520953Y-108724381D02*
X166187619Y-108248190D01*
X165949524Y-108724381D02*
X165949524Y-107724381D01*
X166330477Y-107724381D01*
X166425715Y-107772000D01*
X166473334Y-107819619D01*
X166520953Y-107914857D01*
X166520953Y-108057714D01*
X166473334Y-108152952D01*
X166425715Y-108200571D01*
X166330477Y-108248190D01*
X165949524Y-108248190D01*
X167473334Y-108724381D02*
X166901905Y-108724381D01*
X167187619Y-108724381D02*
X167187619Y-107724381D01*
X167092381Y-107867238D01*
X166997143Y-107962476D01*
X166901905Y-108010095D01*
X168092381Y-107724381D02*
X168187620Y-107724381D01*
X168282858Y-107772000D01*
X168330477Y-107819619D01*
X168378096Y-107914857D01*
X168425715Y-108105333D01*
X168425715Y-108343429D01*
X168378096Y-108533905D01*
X168330477Y-108629143D01*
X168282858Y-108676762D01*
X168187620Y-108724381D01*
X168092381Y-108724381D01*
X167997143Y-108676762D01*
X167949524Y-108629143D01*
X167901905Y-108533905D01*
X167854286Y-108343429D01*
X167854286Y-108105333D01*
X167901905Y-107914857D01*
X167949524Y-107819619D01*
X167997143Y-107772000D01*
X168092381Y-107724381D01*
X169282858Y-108057714D02*
X169282858Y-108724381D01*
X169044762Y-107676762D02*
X168806667Y-108391048D01*
X169425715Y-108391048D01*
X159353381Y-109259619D02*
X159258143Y-109212000D01*
X159162905Y-109116762D01*
X159020048Y-108973905D01*
X158924809Y-108926286D01*
X158829571Y-108926286D01*
X158877190Y-109164381D02*
X158781952Y-109116762D01*
X158686714Y-109021524D01*
X158639095Y-108831048D01*
X158639095Y-108497714D01*
X158686714Y-108307238D01*
X158781952Y-108212000D01*
X158877190Y-108164381D01*
X159067667Y-108164381D01*
X159162905Y-108212000D01*
X159258143Y-108307238D01*
X159305762Y-108497714D01*
X159305762Y-108831048D01*
X159258143Y-109021524D01*
X159162905Y-109116762D01*
X159067667Y-109164381D01*
X158877190Y-109164381D01*
X160258143Y-109164381D02*
X159686714Y-109164381D01*
X159972428Y-109164381D02*
X159972428Y-108164381D01*
X159877190Y-108307238D01*
X159781952Y-108402476D01*
X159686714Y-108450095D01*
X160877190Y-108164381D02*
X160972429Y-108164381D01*
X161067667Y-108212000D01*
X161115286Y-108259619D01*
X161162905Y-108354857D01*
X161210524Y-108545333D01*
X161210524Y-108783429D01*
X161162905Y-108973905D01*
X161115286Y-109069143D01*
X161067667Y-109116762D01*
X160972429Y-109164381D01*
X160877190Y-109164381D01*
X160781952Y-109116762D01*
X160734333Y-109069143D01*
X160686714Y-108973905D01*
X160639095Y-108783429D01*
X160639095Y-108545333D01*
X160686714Y-108354857D01*
X160734333Y-108259619D01*
X160781952Y-108212000D01*
X160877190Y-108164381D01*
X162162905Y-109164381D02*
X161591476Y-109164381D01*
X161877190Y-109164381D02*
X161877190Y-108164381D01*
X161781952Y-108307238D01*
X161686714Y-108402476D01*
X161591476Y-108450095D01*
X159734381Y-112815619D02*
X159639143Y-112768000D01*
X159543905Y-112672762D01*
X159401048Y-112529905D01*
X159305809Y-112482286D01*
X159210571Y-112482286D01*
X159258190Y-112720381D02*
X159162952Y-112672762D01*
X159067714Y-112577524D01*
X159020095Y-112387048D01*
X159020095Y-112053714D01*
X159067714Y-111863238D01*
X159162952Y-111768000D01*
X159258190Y-111720381D01*
X159448667Y-111720381D01*
X159543905Y-111768000D01*
X159639143Y-111863238D01*
X159686762Y-112053714D01*
X159686762Y-112387048D01*
X159639143Y-112577524D01*
X159543905Y-112672762D01*
X159448667Y-112720381D01*
X159258190Y-112720381D01*
X160639143Y-112720381D02*
X160067714Y-112720381D01*
X160353428Y-112720381D02*
X160353428Y-111720381D01*
X160258190Y-111863238D01*
X160162952Y-111958476D01*
X160067714Y-112006095D01*
X161258190Y-111720381D02*
X161353429Y-111720381D01*
X161448667Y-111768000D01*
X161496286Y-111815619D01*
X161543905Y-111910857D01*
X161591524Y-112101333D01*
X161591524Y-112339429D01*
X161543905Y-112529905D01*
X161496286Y-112625143D01*
X161448667Y-112672762D01*
X161353429Y-112720381D01*
X161258190Y-112720381D01*
X161162952Y-112672762D01*
X161115333Y-112625143D01*
X161067714Y-112529905D01*
X161020095Y-112339429D01*
X161020095Y-112101333D01*
X161067714Y-111910857D01*
X161115333Y-111815619D01*
X161162952Y-111768000D01*
X161258190Y-111720381D01*
X161972476Y-111815619D02*
X162020095Y-111768000D01*
X162115333Y-111720381D01*
X162353429Y-111720381D01*
X162448667Y-111768000D01*
X162496286Y-111815619D01*
X162543905Y-111910857D01*
X162543905Y-112006095D01*
X162496286Y-112148952D01*
X161924857Y-112720381D01*
X162543905Y-112720381D01*
M02*
